<?xml version="1.0" encoding="utf-8"?>
<!DOCTYPE svg PUBLIC "-//W3C//DTD SVG 1.0//EN" "http://www.w3.org/TR/2001/REC-SVG-20010904/DTD/svg10.dtd">
<svg version="1.0" xmlns="http://www.w3.org/2000/svg" width="2048px" height="2048px" viewBox="0 0 2048 2048" preserveAspectRatio="xMidYMid meet">
 <g fill="#020202">
  <path d="M124.1 1749.3 c-1.4 -3.8 -17.6 -48 -74.8 -205.2 l-48.5 -133.4 27.6 -522.1 c15.2 -287.2 28 -526.7 28.3 -532.3 l0.6 -10.2 4.1 -0.5 c4 -0.5 425.5 -21.7 430.7 -21.6 2.4 0 2.7 0.5 5.2 11.3 1.4 6.1 10.9 47.2 21.1 91.1 10.2 44 18.7 80 18.8 80.1 0.7 0.5 63.4 -2.8 64 -3.4 0.4 -0.3 1.7 -42 2.9 -92.6 1.2 -50.6 2.2 -92.1 2.3 -92.2 0.1 -0.2 99.2 -5.3 220.1 -11.4 140.1 -7 220 -10.7 220.4 -10.1 0.3 0.6 7.3 46.2 15.5 101.4 8.2 55.1 15.3 100.7 15.7 101.3 0.5 0.5 0.9 0.6 0.9 0.2 0 -2.3 32.2 -195.5 32.8 -196.8 0.6 -1.3 28.4 -0.1 263.2 11.7 144.4 7.3 341.8 17.3 438.7 22.2 97 4.9 176.5 9 176.7 9.3 0.2 0.2 3.7 62.7 7.7 138.9 l7.3 138.5 -58.2 186.5 c-32.1 102.6 -58.7 186.9 -59.2 187.3 -0.4 0.5 -71.7 -2.4 -158.4 -6.3 -86.8 -4 -157.9 -7 -158.2 -6.8 -0.4 0.5 2.6 103.1 3.1 103.7 0.2 0.1 102.7 4.9 227.9 10.5 125.1 5.6 227.8 10.4 228.2 10.8 0.4 0.4 4.3 68.4 8.6 151.1 l8 150.4 -48.5 133.4 c-58.5 160.7 -75.4 207 -76.1 207.6 -0.9 1 -869.1 -33.8 -873 -35 -3.1 -0.9 -43 0.4 -190.7 6.3 -102.7 4.1 -187.1 7.1 -187.4 6.8 -0.7 -0.7 0.7 4.7 -34 -128.8 -14.6 -56.4 -27.1 -104.3 -27.6 -106.4 l-1.1 -3.9 -21.1 0.7 c-11.6 0.3 -21.2 0.8 -21.4 1 -0.2 0.2 -1.7 54.7 -3.3 121.1 -1.6 66.4 -3 120.9 -3.2 121.1 -0.3 0.2 -426 17.4 -432.4 17.4 -1.4 0 -2.5 -1 -3.3 -2.7z m212.9 -81.4 c86.6 -3.4 157.9 -6.6 158.3 -6.9 0.5 -0.4 -17.7 -64.9 -40.2 -143.3 -38.2 -132.6 -41.1 -143.2 -41.1 -150.4 0 -7.5 15.1 -494.7 15.4 -494.9 0 -0.1 21.5 -1.1 47.6 -2.3 26.1 -1.2 52.3 -2.4 58.3 -2.8 l10.7 -0.6 0 8.9 c0 4.9 -0.9 48.6 -2.2 97.1 -1.2 48.6 -1.9 88.5 -1.6 88.8 0.2 0.3 25.1 -0.6 55.3 -2 30.1 -1.4 55.4 -2.5 56.1 -2.5 1.9 0 1.9 -0.4 -1.2 162 l-2.6 139.5 36.1 146.4 c19.9 80.6 36.4 146.7 36.6 146.9 0.6 0.6 323.4 -12.4 324.1 -13.1 0.3 -0.3 -11.5 -65.5 -26.2 -144.9 l-26.7 -144.3 0.8 -485.9 0.7 -485.8 -8.9 0.6 c-4.8 0.4 -77.2 4 -160.8 8.1 -83.6 4.1 -153.1 7.6 -154.5 7.8 l-2.5 0.2 -3.7 187.3 c-2 103 -3.8 187.5 -4.1 187.8 -0.6 0.6 -115.5 6 -116 5.4 -0.3 -0.3 0.6 -42.7 2 -94.4 1.3 -51.6 2.2 -94 2 -94.3 -0.3 -0.2 -25.1 0.8 -55.2 2.2 -30 1.5 -54.8 2.5 -55 2.3 -0.2 -0.2 0.9 -41.7 2.6 -92.2 1.6 -50.6 2.6 -92.2 2.4 -92.5 -0.7 -0.6 -322.2 15.3 -322.8 15.9 -0.3 0.3 -3 51.4 -6.1 113.5 -3 62.2 -13.7 278.2 -23.7 480.1 l-18.1 367.2 50.8 145.6 c49.1 140.5 51 145.6 53.4 145.6 1.4 0.1 73.4 -2.7 160 -6.1z m1587.4 -139.5 l50.8 -145.6 -4.7 -97.7 c-2.7 -53.7 -5.1 -97.9 -5.4 -98.3 -0.3 -0.3 -102.9 -5.1 -228 -10.7 -125 -5.5 -227.5 -10.1 -227.7 -10.3 -0.2 -0.2 -3 -107.2 -6.4 -237.8 -3.3 -130.6 -6.7 -262 -7.5 -292 -0.8 -29.9 -1.3 -54.6 -1.1 -54.8 0.2 -0.1 99.6 4.5 221 10.4 121.3 5.9 220.8 10.5 221 10.3 0.4 -0.6 -8.5 -179.3 -9 -179.9 -0.6 -0.6 -763.3 -38.5 -763.7 -37.9 -0.2 0.2 1.4 218.5 3.4 485.1 l3.6 484.8 -29.7 144.7 c-16.4 79.7 -29.7 144.9 -29.6 144.9 0.3 0.3 741.6 30.2 751.1 30.3 l11 0.1 50.9 -145.6z"/>
 </g>
 <g fill="#585858">
  <path d="M171.5 1676.7 c-16.3 -45.7 -101.5 -290.7 -101.5 -291.9 0 -1.1 0.8 -1.8 1.8 -1.8 1.6 0 10 23.1 52.2 144 27.7 79.2 50.7 144.6 51.1 145.2 0.6 0.9 40 -0.4 160.1 -5.2 87.6 -3.5 159.5 -6.5 159.7 -6.6 0.1 -0.2 -18.2 -64.5 -40.8 -143.1 -40.9 -142.1 -41.1 -142.8 -41.1 -152 0 -8.6 0.1 -9.3 2 -9.3 1.8 0 2 0.7 2 8.3 0.1 7.8 2.1 15.2 41.9 153.2 31.9 110.7 41.5 145.2 40.6 146 -0.7 0.6 -65.3 3.5 -160.1 7.3 -87.4 3.4 -160.8 6.4 -163.2 6.7 -2.8 0.3 -4.4 0.1 -4.7 -0.8z"/>
  <path d="M1491 1662.3 c-210.4 -8.6 -382.8 -15.8 -383.2 -16.2 -0.5 -0.5 21.8 -110.3 59.3 -291.8 1.3 -6.7 3.9 -7.4 3.9 -1 0 2.3 -13.2 68.3 -29.4 146.7 -16.1 78.4 -29 142.6 -28.7 142.7 0.3 0.1 171.3 7 379.9 15.4 290.4 11.7 379.5 15 380.1 14.1 0.4 -0.7 23.4 -66.1 51.1 -145.3 27.9 -79.7 51 -144.3 51.7 -144.6 1.7 -0.7 2.4 0 2.5 2.3 0 3.6 -101.9 292.9 -103.3 293 -0.8 0.1 -173.5 -6.8 -383.9 -15.3z"/>
  <path d="M719.4 1654.9 c-0.8 -1.4 -72.4 -292.8 -72.4 -294.8 0 -1.4 0.6 -2.1 1.8 -2.1 1.5 0 6.6 19.7 37.7 145.8 19.7 80.1 36.2 146.1 36.6 146.6 0.8 0.9 321.5 -11.6 322.4 -12.6 0.3 -0.3 -11.4 -65.1 -26 -144 l-26.5 -143.6 0 -102.6 c0 -101.9 0 -102.6 2 -102.6 2 0 2 0.7 2 101.3 l0 101.2 27.1 146.8 c14.9 80.7 26.9 147.1 26.6 147.4 -0.8 0.8 -330.8 13.9 -331.3 13.2z"/>
  <path d="M70 1372.3 c0 -7.2 0.8 -10.3 2.6 -10.3 1.1 0 1.4 1.9 1.4 8 0 7.3 -0.2 8 -2 8 -1.8 0 -2 -0.7 -2 -5.7z"/>
  <path d="M1974 1370 c0 -6.1 0.3 -8 1.4 -8 1.8 0 2.6 3.1 2.6 10.3 0 5 -0.2 5.7 -2 5.7 -1.8 0 -2 -0.7 -2 -8z"/>
  <path d="M71 1352.3 c0 -7.2 0.8 -10.3 2.6 -10.3 1.1 0 1.4 1.9 1.4 8 0 7.3 -0.2 8 -2 8 -1.8 0 -2 -0.7 -2 -5.7z"/>
  <path d="M1973 1350 c0 -6.1 0.3 -8 1.4 -8 1.8 0 2.6 3.1 2.6 10.3 0 5 -0.2 5.7 -2 5.7 -1.8 0 -2 -0.7 -2 -8z"/>
  <path d="M414 1336 c0 -10.3 0.1 -11 2 -11 1.8 0 2 0.7 2 8.8 0 10 -0.7 13.2 -2.6 13.2 -1.1 0 -1.4 -2.3 -1.4 -11z"/>
  <path d="M647 1328.3 c0 -15 0.5 -18.3 2.6 -18.3 1.1 0 1.4 3 1.4 16 0 15.3 -0.1 16 -2 16 -1.9 0 -2 -0.7 -2 -13.7z"/>
  <path d="M72 1332.3 c0 -7.2 0.8 -10.3 2.6 -10.3 1.1 0 1.4 1.9 1.4 8 0 7.3 -0.2 8 -2 8 -1.8 0 -2 -0.7 -2 -5.7z"/>
  <path d="M1972 1329 c0 -6.1 0.3 -8 1.4 -8 1.8 0 2.6 3.1 2.6 10.3 0 5 -0.2 5.7 -2 5.7 -1.8 0 -2 -0.7 -2 -8z"/>
  <path d="M1167.6 1323.8 c-0.3 -1.3 -0.6 -17.7 -0.6 -36.5 0 -33.6 0 -34.3 2 -34.3 2 0 2 0.7 2 36.5 0 30.4 -0.2 36.5 -1.4 36.5 -0.7 0 -1.6 -1 -2 -2.2z"/>
  <path d="M73 1311.3 c0 -7.2 0.8 -10.3 2.6 -10.3 1.1 0 1.4 1.9 1.4 8 0 7.3 -0.2 8 -2 8 -1.8 0 -2 -0.7 -2 -5.7z"/>
  <path d="M1971 1309 c0 -6.1 0.3 -8 1.4 -8 1.8 0 2.6 3.1 2.6 10.3 0 5 -0.2 5.7 -2 5.7 -1.8 0 -2 -0.7 -2 -8z"/>
  <path d="M415 1304 c0 -10.3 0.1 -11 2 -11 1.8 0 2 0.7 2 8.8 0 10 -0.7 13.2 -2.6 13.2 -1.1 0 -1.4 -2.3 -1.4 -11z"/>
  <path d="M74 1291.3 c0 -7.2 0.8 -10.3 2.6 -10.3 1.1 0 1.4 1.9 1.4 8 0 7.3 -0.2 8 -2 8 -1.8 0 -2 -0.7 -2 -5.7z"/>
  <path d="M1970 1289 c0 -6.1 0.3 -8 1.4 -8 1.8 0 2.6 3.1 2.6 10.3 0 5 -0.2 5.7 -2 5.7 -1.8 0 -2 -0.7 -2 -8z"/>
  <path d="M648 1276.8 c0 -14.5 0.5 -17.8 2.6 -17.8 1.1 0 1.4 3 1.4 15.5 0 14.8 -0.1 15.5 -2 15.5 -1.9 0 -2 -0.7 -2 -13.2z"/>
  <path d="M416 1272.5 c0 -9.8 0.1 -10.5 2 -10.5 1.8 0 2 0.7 2 8.3 0 9.5 -0.7 12.7 -2.6 12.7 -1.1 0 -1.4 -2.2 -1.4 -10.5z"/>
  <path d="M75 1271.3 c0 -7.2 0.8 -10.3 2.6 -10.3 1.1 0 1.4 1.9 1.4 8 0 7.3 -0.2 8 -2 8 -1.8 0 -2 -0.7 -2 -5.7z"/>
  <path d="M1969 1269 c0 -6.1 0.3 -8 1.4 -8 1.8 0 2.6 3.1 2.6 10.3 0 5 -0.2 5.7 -2 5.7 -1.8 0 -2 -0.7 -2 -8z"/>
  <path d="M76 1251.3 c0 -7.2 0.8 -10.3 2.6 -10.3 1.1 0 1.4 1.9 1.4 8 0 7.3 -0.2 8 -2 8 -1.8 0 -2 -0.7 -2 -5.7z"/>
  <path d="M1968 1248 c0 -6.1 0.3 -8 1.4 -8 1.8 0 2.6 3.1 2.6 10.3 0 5 -0.2 5.7 -2 5.7 -1.8 0 -2 -0.7 -2 -8z"/>
  <path d="M417 1241 c0 -10.3 0.1 -11 2 -11 1.8 0 2 0.7 2 8.8 0 10 -0.7 13.2 -2.6 13.2 -1.1 0 -1.4 -2.3 -1.4 -11z"/>
  <path d="M649 1225.8 c0 -14.5 0.5 -17.8 2.6 -17.8 1.1 0 1.4 3 1.4 15.5 0 14.8 -0.1 15.5 -2 15.5 -1.9 0 -2 -0.7 -2 -13.2z"/>
  <path d="M77 1230.3 c0 -7.2 0.8 -10.3 2.6 -10.3 1.1 0 1.4 1.9 1.4 8 0 7.3 -0.2 8 -2 8 -1.8 0 -2 -0.7 -2 -5.7z"/>
  <path d="M1967 1228 c0 -6.1 0.3 -8 1.4 -8 1.8 0 2.6 3.1 2.6 10.3 0 5 -0.2 5.7 -2 5.7 -1.8 0 -2 -0.7 -2 -8z"/>
  <path d="M418 1209 c0 -10.3 0.1 -11 2 -11 1.8 0 2 0.7 2 8.8 0 10 -0.7 13.2 -2.6 13.2 -1.1 0 -1.4 -2.3 -1.4 -11z"/>
  <path d="M78 1210.3 c0 -7.2 0.8 -10.3 2.6 -10.3 1.1 0 1.4 1.9 1.4 8 0 7.3 -0.2 8 -2 8 -1.8 0 -2 -0.7 -2 -5.7z"/>
  <path d="M1966 1208 c0 -6.1 0.3 -8 1.4 -8 1.8 0 2.6 3.1 2.6 10.3 0 5 -0.2 5.7 -2 5.7 -1.8 0 -2 -0.7 -2 -8z"/>
  <path d="M79 1190.3 c0 -7.2 0.8 -10.3 2.6 -10.3 1.1 0 1.4 1.9 1.4 8 0 7.3 -0.2 8 -2 8 -1.8 0 -2 -0.7 -2 -5.7z"/>
  <path d="M1965 1191.5 c0 -3.8 -0.3 -4.5 -2 -4.5 -1.4 0 -2 -0.7 -2 -2.1 0 -1.7 0.5 -2 3.8 -1.7 l3.7 0.3 0.3 6.3 c0.3 5.7 0.1 6.2 -1.8 6.2 -1.7 0 -2 -0.6 -2 -4.5z"/>
  <path d="M1166.6 1190.8 c-0.3 -1.3 -0.6 -17.7 -0.6 -36.5 0 -33.6 0 -34.3 2 -34.3 2 0 2 0.7 2 36.5 0 30.4 -0.2 36.5 -1.4 36.5 -0.7 0 -1.6 -1 -2 -2.2z"/>
  <path d="M419 1177 c0 -10.3 0.1 -11 2 -11 1.8 0 2 0.7 2 8.8 0 10 -0.7 13.2 -2.6 13.2 -1.1 0 -1.4 -2.3 -1.4 -11z"/>
  <path d="M650 1174.3 c0 -15 0.5 -18.3 2.6 -18.3 1.1 0 1.4 3 1.4 16 0 15.3 -0.1 16 -2 16 -1.9 0 -2 -0.7 -2 -13.7z"/>
  <path d="M1938 1184 c0 -1.8 0.7 -2 6.3 -2 7.6 0 10.7 0.8 10.7 2.6 0 1.1 -1.9 1.4 -8.5 1.4 -7.8 0 -8.5 -0.2 -8.5 -2z"/>
  <path d="M1915 1183 c0 -1.8 0.7 -2 6.3 -2 7.6 0 10.7 0.8 10.7 2.6 0 1.1 -1.9 1.4 -8.5 1.4 -7.8 0 -8.5 -0.2 -8.5 -2z"/>
  <path d="M1892 1182 c0 -1.8 0.7 -2 6.8 -2 8 0 11.2 0.8 11.2 2.6 0 1.1 -2 1.4 -9 1.4 -8.3 0 -9 -0.1 -9 -2z"/>
  <path d="M1870 1181 c0 -1.8 0.7 -2 6.3 -2 7.6 0 10.7 0.8 10.7 2.6 0 1.1 -1.9 1.4 -8.5 1.4 -7.8 0 -8.5 -0.2 -8.5 -2z"/>
  <path d="M1847 1180 c0 -1.8 0.7 -2 6.3 -2 7.6 0 10.7 0.8 10.7 2.6 0 1.1 -1.9 1.4 -8.5 1.4 -7.8 0 -8.5 -0.2 -8.5 -2z"/>
  <path d="M1824 1179 c0 -1.8 0.7 -2 6.8 -2 8 0 11.2 0.8 11.2 2.6 0 1.1 -2 1.4 -9 1.4 -8.3 0 -9 -0.1 -9 -2z"/>
  <path d="M1802 1178 c0 -1.8 0.7 -2 6.3 -2 7.6 0 10.7 0.8 10.7 2.6 0 1.1 -1.9 1.4 -8.5 1.4 -7.8 0 -8.5 -0.2 -8.5 -2z"/>
  <path d="M1779 1177 c0 -1.8 0.7 -2 6.3 -2 7.6 0 10.7 0.8 10.7 2.6 0 1.1 -1.9 1.4 -8.5 1.4 -7.8 0 -8.5 -0.2 -8.5 -2z"/>
  <path d="M1756 1176 c0 -1.8 0.7 -2 6.8 -2 8 0 11.2 0.8 11.2 2.6 0 1.1 -2 1.4 -9 1.4 -8.3 0 -9 -0.1 -9 -2z"/>
  <path d="M1734 1175 c0 -1.8 0.7 -2 6.3 -2 7.6 0 10.7 0.8 10.7 2.6 0 1.1 -1.9 1.4 -8.5 1.4 -7.8 0 -8.5 -0.2 -8.5 -2z"/>
  <path d="M80 1170.3 c0 -7.2 0.8 -10.3 2.6 -10.3 1.1 0 1.4 1.9 1.4 8 0 7.3 -0.2 8 -2 8 -1.8 0 -2 -0.7 -2 -5.7z"/>
  <path d="M1711 1174 c0 -1.8 0.7 -2 6.3 -2 7.6 0 10.7 0.8 10.7 2.6 0 1.1 -1.9 1.4 -8.5 1.4 -7.8 0 -8.5 -0.2 -8.5 -2z"/>
  <path d="M1688 1173 c0 -1.8 0.7 -2 6.8 -2 8 0 11.2 0.8 11.2 2.6 0 1.1 -2 1.4 -9 1.4 -8.3 0 -9 -0.1 -9 -2z"/>
  <path d="M1666 1172 c0 -1.8 0.7 -2 6.3 -2 7.6 0 10.7 0.8 10.7 2.6 0 1.1 -1.9 1.4 -8.5 1.4 -7.8 0 -8.5 -0.2 -8.5 -2z"/>
  <path d="M1643 1171 c0 -1.8 0.7 -2 6.3 -2 7.6 0 10.7 0.8 10.7 2.6 0 1.1 -1.9 1.4 -8.5 1.4 -7.8 0 -8.5 -0.2 -8.5 -2z"/>
  <path d="M1620 1170 c0 -1.8 0.7 -2 6.8 -2 8 0 11.2 0.8 11.2 2.6 0 1.1 -2 1.4 -9 1.4 -8.3 0 -9 -0.1 -9 -2z"/>
  <path d="M1597 1169 c0 -1.8 0.7 -2 6.8 -2 8 0 11.2 0.8 11.2 2.6 0 1.1 -2 1.4 -9 1.4 -8.3 0 -9 -0.1 -9 -2z"/>
  <path d="M1575 1168 c0 -1.8 0.7 -2 6.3 -2 7.6 0 10.7 0.8 10.7 2.6 0 1.1 -1.9 1.4 -8.5 1.4 -7.8 0 -8.5 -0.2 -8.5 -2z"/>
  <path d="M1552 1167 c0 -1.8 0.7 -2 6.3 -2 7.6 0 10.7 0.8 10.7 2.6 0 1.1 -1.9 1.4 -8.5 1.4 -7.8 0 -8.5 -0.2 -8.5 -2z"/>
  <path d="M1529 1166 c0 -1.8 0.7 -2 6.8 -2 8 0 11.2 0.8 11.2 2.6 0 1.1 -2 1.4 -9 1.4 -8.3 0 -9 -0.1 -9 -2z"/>
  <path d="M1508.6 1163.3 c-0.3 -2.1 -0.6 -8.9 -0.6 -15 0 -9 0.3 -11.3 1.4 -11.3 2 0 2.6 3.3 2.6 15.3 l0 10.7 3.8 0 c5.2 0 8.2 1 8.2 2.6 0 1.1 -1.8 1.4 -7.4 1.4 l-7.3 0 -0.7 -3.7z"/>
  <path d="M420 1146 c0 -10.3 0.1 -11 2 -11 1.8 0 2 0.7 2 8.8 0 10 -0.7 13.2 -2.6 13.2 -1.1 0 -1.4 -2.3 -1.4 -11z"/>
  <path d="M81 1149.3 c0 -7.2 0.8 -10.3 2.6 -10.3 1.1 0 1.4 1.9 1.4 8 0 7.3 -0.2 8 -2 8 -1.8 0 -2 -0.7 -2 -5.7z"/>
  <path d="M651 1123.3 c0 -15 0.5 -18.3 2.6 -18.3 1.1 0 1.4 3 1.4 16 0 15.3 -0.1 16 -2 16 -1.9 0 -2 -0.7 -2 -13.7z"/>
  <path d="M82 1129.3 c0 -7.2 0.8 -10.3 2.6 -10.3 1.1 0 1.4 1.9 1.4 8 0 7.3 -0.2 8 -2 8 -1.8 0 -2 -0.7 -2 -5.7z"/>
  <path d="M421 1114 c0 -10.3 0.1 -11 2 -11 1.8 0 2 0.7 2 8.8 0 10 -0.7 13.2 -2.6 13.2 -1.1 0 -1.4 -2.3 -1.4 -11z"/>
  <path d="M1507 1110.5 c0 -10 0.3 -12.5 1.4 -12.5 2 0 2.6 3.2 2.6 14.8 0 9.5 -0.1 10.2 -2 10.2 -1.9 0 -2 -0.7 -2 -12.5z"/>
  <path d="M83 1109.3 c0 -7.2 0.8 -10.3 2.6 -10.3 1.1 0 1.4 1.9 1.4 8 0 7.3 -0.2 8 -2 8 -1.8 0 -2 -0.7 -2 -5.7z"/>
  <path d="M84 1089.3 c0 -7.2 0.8 -10.3 2.6 -10.3 1.1 0 1.4 1.9 1.4 8 0 7.3 -0.2 8 -2 8 -1.8 0 -2 -0.7 -2 -5.7z"/>
  <path d="M422 1082 c0 -10.3 0.1 -11 2 -11 1.8 0 2 0.7 2 8.8 0 10 -0.7 13.2 -2.6 13.2 -1.1 0 -1.4 -2.3 -1.4 -11z"/>
  <path d="M652 1073 c0 -10.9 -0.2 -13 -1.5 -13 -0.8 0 -1.5 -0.7 -1.5 -1.5 0 -1 1.1 -1.5 3.5 -1.5 l3.5 0 0 14.5 c0 13.8 -0.1 14.5 -2 14.5 -1.9 0 -2 -0.7 -2 -13z"/>
  <path d="M1506 1071.5 c0 -10 0.3 -12.5 1.4 -12.5 2 0 2.6 3.2 2.6 14.8 0 9.5 -0.1 10.2 -2 10.2 -1.9 0 -2 -0.7 -2 -12.5z"/>
  <path d="M85 1068.8 c0 -7.7 0.8 -10.8 2.6 -10.8 1.1 0 1.4 1.9 1.4 8.5 0 7.8 -0.2 8.5 -2 8.5 -1.8 0 -2 -0.7 -2 -6.2z"/>
  <path d="M538.4 1062.8 c0.3 -1.3 0.6 -2.6 0.6 -3 0 -0.5 0.7 -0.8 1.5 -0.8 1 0 1.5 1 1.5 3 0 2.4 -0.4 3 -2.1 3 -1.7 0 -2 -0.4 -1.5 -2.2z"/>
  <path d="M552 1063 c0 -1.6 0.7 -2 3.5 -2 4 0 4.9 2.4 1.3 3.4 -3.8 1 -4.8 0.7 -4.8 -1.4z"/>
  <path d="M574 1062 c0 -1.6 0.7 -2 3.5 -2 4 0 4.9 2.4 1.3 3.4 -3.8 1 -4.8 0.7 -4.8 -1.4z"/>
  <path d="M597 1061 c0 -1.6 0.7 -2 3.5 -2 4 0 4.9 2.4 1.3 3.4 -3.8 1 -4.8 0.7 -4.8 -1.4z"/>
  <path d="M619 1060 c0 -1.6 0.7 -2 3.5 -2 4 0 4.9 2.4 1.3 3.4 -3.8 1 -4.8 0.7 -4.8 -1.4z"/>
  <path d="M423 1050.5 c0 -9.8 0.1 -10.5 2 -10.5 1.8 0 2 0.7 2 8.3 0 9.5 -0.7 12.7 -2.6 12.7 -1.1 0 -1.4 -2.2 -1.4 -10.5z"/>
  <path d="M641 1059 c0 -1.6 0.7 -2 3.5 -2 4 0 4.9 2.4 1.3 3.4 -3.8 1 -4.8 0.7 -4.8 -1.4z"/>
  <path d="M1165.6 1056.8 c-0.3 -1.3 -0.6 -17.5 -0.6 -36 0 -33.1 0 -33.8 2 -33.8 2 0 2 0.7 2 36 0 30 -0.2 36 -1.4 36 -0.7 0 -1.6 -1 -2 -2.2z"/>
  <path d="M86 1048.3 c0 -7.2 0.8 -10.3 2.6 -10.3 1.1 0 1.4 1.9 1.4 8 0 7.3 -0.2 8 -2 8 -1.8 0 -2 -0.7 -2 -5.7z"/>
  <path d="M539 1034.8 c0 -11.6 0.6 -14.8 2.6 -14.8 1.1 0 1.4 2.5 1.4 12.5 0 11.8 -0.1 12.5 -2 12.5 -1.9 0 -2 -0.7 -2 -10.2z"/>
  <path d="M1505 1032 c0 -10.4 0.3 -13 1.4 -13 2 0 2.6 3.3 2.6 15.3 0 10 -0.1 10.7 -2 10.7 -1.9 0 -2 -0.7 -2 -13z"/>
  <path d="M87 1028.3 c0 -7.2 0.8 -10.3 2.6 -10.3 1.1 0 1.4 1.9 1.4 8 0 7.3 -0.2 8 -2 8 -1.8 0 -2 -0.7 -2 -5.7z"/>
  <path d="M424 1019 c0 -10.3 0.1 -11 2 -11 1.8 0 2 0.7 2 8.8 0 10 -0.7 13.2 -2.6 13.2 -1.1 0 -1.4 -2.3 -1.4 -11z"/>
  <path d="M88 1008.3 c0 -7.2 0.8 -10.3 2.6 -10.3 1.1 0 1.4 1.9 1.4 8 0 7.3 -0.2 8 -2 8 -1.8 0 -2 -0.7 -2 -5.7z"/>
  <path d="M540 995.8 c0 -11.6 0.6 -14.8 2.6 -14.8 1.1 0 1.4 2.5 1.4 12.5 0 11.8 -0.1 12.5 -2 12.5 -1.9 0 -2 -0.7 -2 -10.2z"/>
  <path d="M1504 993 c0 -10.4 0.3 -13 1.4 -13 2 0 2.6 3.3 2.6 15.3 0 10 -0.1 10.7 -2 10.7 -1.9 0 -2 -0.7 -2 -13z"/>
  <path d="M425 987 c0 -10.3 0.1 -11 2 -11 1.8 0 2 0.7 2 8.8 0 10 -0.7 13.2 -2.6 13.2 -1.1 0 -1.4 -2.3 -1.4 -11z"/>
  <path d="M89 987.8 c0 -7.7 0.8 -10.8 2.6 -10.8 1.1 0 1.4 1.9 1.4 8.5 0 7.8 -0.2 8.5 -2 8.5 -1.8 0 -2 -0.7 -2 -6.2z"/>
  <path d="M90 967.3 c0 -7.2 0.8 -10.3 2.6 -10.3 1.1 0 1.4 1.9 1.4 8 0 7.3 -0.2 8 -2 8 -1.8 0 -2 -0.7 -2 -5.7z"/>
  <path d="M541 956.8 c0 -11.6 0.6 -14.8 2.6 -14.8 1.1 0 1.4 2.5 1.4 12.5 0 11.8 -0.1 12.5 -2 12.5 -1.9 0 -2 -0.7 -2 -10.2z"/>
  <path d="M1503 954 c0 -10.4 0.3 -13 1.4 -13 2 0 2.6 3.3 2.6 15.3 0 10 -0.1 10.7 -2 10.7 -1.9 0 -2 -0.7 -2 -13z"/>
  <path d="M426 955 c0 -10.3 0.1 -11 2 -11 1.8 0 2 0.7 2 8.8 0 10 -0.7 13.2 -2.6 13.2 -1.1 0 -1.4 -2.3 -1.4 -11z"/>
  <path d="M91 947.3 c0 -7.2 0.8 -10.3 2.6 -10.3 1.1 0 1.4 1.9 1.4 8 0 7.3 -0.2 8 -2 8 -1.8 0 -2 -0.7 -2 -5.7z"/>
  <path d="M427 924 c0 -10.3 0.1 -11 2 -11 1.8 0 2 0.7 2 8.8 0 10 -0.7 13.2 -2.6 13.2 -1.1 0 -1.4 -2.3 -1.4 -11z"/>
  <path d="M92 927.3 c0 -7.2 0.8 -10.3 2.6 -10.3 1.1 0 1.4 1.9 1.4 8 0 7.3 -0.2 8 -2 8 -1.8 0 -2 -0.7 -2 -5.7z"/>
  <path d="M542 917.3 c0 -12 0.6 -15.3 2.6 -15.3 1.1 0 1.4 2.6 1.4 13 0 12.3 -0.1 13 -2 13 -1.9 0 -2 -0.7 -2 -10.7z"/>
  <path d="M1502 915 c0 -10.4 0.3 -13 1.4 -13 2 0 2.6 3.3 2.6 15.3 0 10 -0.1 10.7 -2 10.7 -1.9 0 -2 -0.7 -2 -13z"/>
  <path d="M1164.6 923.8 c-0.3 -1.3 -0.6 -17.7 -0.6 -36.5 0 -33.6 0 -34.3 2 -34.3 2 0 2 0.7 2 36.5 0 30.4 -0.2 36.5 -1.4 36.5 -0.7 0 -1.6 -1 -2 -2.2z"/>
  <path d="M93 906.8 c0 -7.7 0.8 -10.8 2.6 -10.8 1.1 0 1.4 1.9 1.4 8.5 0 7.8 -0.2 8.5 -2 8.5 -1.8 0 -2 -0.7 -2 -6.2z"/>
  <path d="M428 892 c0 -10.3 0.1 -11 2 -11 1.8 0 2 0.7 2 8.8 0 10 -0.7 13.2 -2.6 13.2 -1.1 0 -1.4 -2.3 -1.4 -11z"/>
  <path d="M94 886.3 c0 -7.2 0.8 -10.3 2.6 -10.3 1.1 0 1.4 1.9 1.4 8 0 7.3 -0.2 8 -2 8 -1.8 0 -2 -0.7 -2 -5.7z"/>
  <path d="M543 879.5 c0 -7.8 -0.3 -9.5 -1.5 -9.5 -0.8 0 -1.5 -0.7 -1.5 -1.5 0 -1 1.1 -1.5 3.5 -1.5 l3.5 0 0 11 c0 10.3 -0.1 11 -2 11 -1.9 0 -2 -0.7 -2 -9.5z"/>
  <path d="M1501 875.5 c0 -10 0.3 -12.5 1.4 -12.5 2 0 2.6 3.2 2.6 14.8 0 9.5 -0.1 10.2 -2 10.2 -1.9 0 -2 -0.7 -2 -12.5z"/>
  <path d="M435 873 c0 -1.8 0.7 -2 8.5 -2 6.6 0 8.5 0.3 8.5 1.4 0 1.8 -3.1 2.6 -10.7 2.6 -5.6 0 -6.3 -0.2 -6.3 -2z"/>
  <path d="M457 872 c0 -1.8 0.7 -2 8.5 -2 6.6 0 8.5 0.3 8.5 1.4 0 1.8 -3.1 2.6 -10.7 2.6 -5.6 0 -6.3 -0.2 -6.3 -2z"/>
  <path d="M479 871 c0 -1.8 0.7 -2 8 -2 6.1 0 8 0.3 8 1.4 0 1.8 -3.1 2.6 -10.2 2.6 -5.1 0 -5.8 -0.2 -5.8 -2z"/>
  <path d="M95 866.3 c0 -7.2 0.8 -10.3 2.6 -10.3 1.1 0 1.4 1.9 1.4 8 0 7.3 -0.2 8 -2 8 -1.8 0 -2 -0.7 -2 -5.7z"/>
  <path d="M500 870 c0 -1.8 0.7 -2 8.5 -2 6.6 0 8.5 0.3 8.5 1.4 0 1.8 -3.1 2.6 -10.7 2.6 -5.6 0 -6.3 -0.2 -6.3 -2z"/>
  <path d="M522 869 c0 -1.8 0.7 -2 8.5 -2 6.6 0 8.5 0.3 8.5 1.4 0 1.8 -3.1 2.6 -10.7 2.6 -5.6 0 -6.3 -0.2 -6.3 -2z"/>
  <path d="M96 846.3 c0 -7.2 0.8 -10.3 2.6 -10.3 1.1 0 1.4 1.9 1.4 8 0 7.3 -0.2 8 -2 8 -1.8 0 -2 -0.7 -2 -5.7z"/>
  <path d="M1500 836.5 c0 -10 0.3 -12.5 1.4 -12.5 2 0 2.6 3.2 2.6 14.8 0 9.5 -0.1 10.2 -2 10.2 -1.9 0 -2 -0.7 -2 -12.5z"/>
  <path d="M97 825.8 c0 -7.7 0.8 -10.8 2.6 -10.8 1.1 0 1.4 1.9 1.4 8.5 0 7.8 -0.2 8.5 -2 8.5 -1.8 0 -2 -0.7 -2 -6.2z"/>
  <path d="M98 805.3 c0 -7.2 0.8 -10.3 2.6 -10.3 1.1 0 1.4 1.9 1.4 8 0 7.3 -0.2 8 -2 8 -1.8 0 -2 -0.7 -2 -5.7z"/>
  <path d="M1499 797.5 c0 -10 0.3 -12.5 1.4 -12.5 2 0 2.6 3.2 2.6 14.8 0 9.5 -0.1 10.2 -2 10.2 -1.9 0 -2 -0.7 -2 -12.5z"/>
  <path d="M994 632 c0 -174.3 0 -175 2 -175 2 0 2 0.7 2 172.8 0 95 -0.3 173.7 -0.6 175 -0.4 1.2 -1.3 2.2 -2 2.2 -1.2 0 -1.4 -26.7 -1.4 -175z"/>
  <path d="M1163.6 790.8 c-0.3 -1.3 -0.6 -17.7 -0.6 -36.5 0 -33.6 0 -34.3 2 -34.3 2 0 2 0.7 2 36.5 0 30.4 -0.2 36.5 -1.4 36.5 -0.7 0 -1.6 -1 -2 -2.2z"/>
  <path d="M99 785.3 c0 -7.2 0.8 -10.3 2.6 -10.3 1.1 0 1.4 1.9 1.4 8 0 7.3 -0.2 8 -2 8 -1.8 0 -2 -0.7 -2 -5.7z"/>
  <path d="M544.6 772.9 c-0.3 -1.7 -0.6 -8.3 -0.6 -14.5 0 -10.9 0.1 -11.4 2.1 -11.4 2 0 2.1 0.4 1.8 12.5 l-0.4 12.5 3.8 0 c3 0 3.7 0.4 3.7 2 0 1.7 -0.7 2 -4.9 2 -4.6 0 -4.9 -0.1 -5.5 -3.1z"/>
  <path d="M560 773.6 c0 -1.8 3.1 -2.6 10.3 -2.6 5 0 5.7 0.2 5.7 2 0 1.8 -0.7 2 -8 2 -6.1 0 -8 -0.3 -8 -1.4z"/>
  <path d="M581 772.6 c0 -1.8 3.1 -2.6 10.8 -2.6 5.5 0 6.2 0.2 6.2 2 0 1.8 -0.7 2 -8.5 2 -6.6 0 -8.5 -0.3 -8.5 -1.4z"/>
  <path d="M603 771.6 c0 -1.8 3.1 -2.6 10.3 -2.6 5 0 5.7 0.2 5.7 2 0 1.8 -0.7 2 -8 2 -6.1 0 -8 -0.3 -8 -1.4z"/>
  <path d="M624 770.6 c0 -1.8 3.1 -2.6 10.3 -2.6 5 0 5.7 0.2 5.7 2 0 1.8 -0.7 2 -8 2 -6.1 0 -8 -0.3 -8 -1.4z"/>
  <path d="M100 765.3 c0 -7.2 0.8 -10.3 2.6 -10.3 1.1 0 1.4 1.9 1.4 8 0 7.3 -0.2 8 -2 8 -1.8 0 -2 -0.7 -2 -5.7z"/>
  <path d="M645 769.7 c0 -1.8 3 -2.7 8.8 -2.7 l4.2 0 0 -7.7 c0 -9.2 0.7 -12.3 2.6 -12.3 1.2 0 1.4 2.2 1.2 11.8 l-0.3 11.7 -8.2 0.3 c-6.7 0.2 -8.3 0 -8.3 -1.1z"/>
  <path d="M1498 758 c0 -10.4 0.3 -13 1.4 -13 2 0 2.6 3.3 2.6 15.3 0 10 -0.1 10.7 -2 10.7 -1.9 0 -2 -0.7 -2 -13z"/>
  <path d="M101 745.3 c0 -7.2 0.8 -10.3 2.6 -10.3 1.1 0 1.4 1.9 1.4 8 0 7.3 -0.2 8 -2 8 -1.8 0 -2 -0.7 -2 -5.7z"/>
  <path d="M545 720.5 c0 -11.8 0.1 -12.5 2 -12.5 1.9 0 2 0.7 2 10.3 0 11.5 -0.6 14.7 -2.6 14.7 -1.1 0 -1.4 -2.5 -1.4 -12.5z"/>
  <path d="M1497 719 c0 -10.4 0.3 -13 1.4 -13 2 0 2.6 3.3 2.6 15.3 0 10 -0.1 10.7 -2 10.7 -1.9 0 -2 -0.7 -2 -13z"/>
  <path d="M102 724.8 c0 -7.7 0.8 -10.8 2.6 -10.8 1.1 0 1.4 1.9 1.4 8.5 0 7.8 -0.2 8.5 -2 8.5 -1.8 0 -2 -0.7 -2 -6.2z"/>
  <path d="M659 714.3 c0 -15 0.5 -18.3 2.6 -18.3 1.1 0 1.4 3 1.4 16 0 15.3 -0.1 16 -2 16 -1.9 0 -2 -0.7 -2 -13.7z"/>
  <path d="M103 704.8 c0 -7.7 0.8 -10.8 2.6 -10.8 1.1 0 1.4 1.9 1.4 8.5 0 7.8 -0.2 8.5 -2 8.5 -1.8 0 -2 -0.7 -2 -6.2z"/>
  <path d="M546 681.5 c0 -11.8 0.1 -12.5 2 -12.5 1.9 0 2 0.7 2 10.3 0 11.5 -0.6 14.7 -2.6 14.7 -1.1 0 -1.4 -2.5 -1.4 -12.5z"/>
  <path d="M1496 680.5 c0 -10 0.3 -12.5 1.4 -12.5 2 0 2.6 3.2 2.6 14.8 0 9.5 -0.1 10.2 -2 10.2 -1.9 0 -2 -0.7 -2 -12.5z"/>
  <path d="M104 684.3 c0 -7.2 0.8 -10.3 2.6 -10.3 1.1 0 1.4 1.9 1.4 8 0 7.3 -0.2 8 -2 8 -1.8 0 -2 -0.7 -2 -5.7z"/>
  <path d="M660 663.3 c0 -15 0.5 -18.3 2.6 -18.3 1.1 0 1.4 3 1.4 16 0 15.3 -0.1 16 -2 16 -1.9 0 -2 -0.7 -2 -13.7z"/>
  <path d="M105 664.3 c0 -7.2 0.8 -10.3 2.6 -10.3 1.1 0 1.4 1.9 1.4 8 0 7.3 -0.2 8 -2 8 -1.8 0 -2 -0.7 -2 -5.7z"/>
  <path d="M1162.6 656.8 c-0.3 -1.3 -0.6 -17.5 -0.6 -36 0 -33.1 0 -33.8 2 -33.8 2 0 2 0.7 2 36 0 30 -0.2 36 -1.4 36 -0.7 0 -1.6 -1 -2 -2.2z"/>
  <path d="M547 642 c0 -12.3 0.1 -13 2 -13 1.9 0 2 0.7 2 10.8 0 11.9 -0.6 15.2 -2.6 15.2 -1.1 0 -1.4 -2.6 -1.4 -13z"/>
  <path d="M1495 641 c0 -10.4 0.3 -13 1.4 -13 2 0 2.6 3.3 2.6 15.3 0 10 -0.1 10.7 -2 10.7 -1.9 0 -2 -0.7 -2 -13z"/>
  <path d="M106 644.3 c0 -7.2 0.8 -10.3 2.6 -10.3 1.1 0 1.4 1.9 1.4 8 0 7.3 -0.2 8 -2 8 -1.8 0 -2 -0.7 -2 -5.7z"/>
  <path d="M107 624.3 c0 -7.2 0.8 -10.3 2.6 -10.3 1.1 0 1.4 1.9 1.4 8 0 7.3 -0.2 8 -2 8 -1.8 0 -2 -0.7 -2 -5.7z"/>
  <path d="M661 612.3 c0 -15 0.5 -18.3 2.6 -18.3 1.1 0 1.4 3 1.4 16 0 15.3 -0.1 16 -2 16 -1.9 0 -2 -0.7 -2 -13.7z"/>
  <path d="M548 603 c0 -12.3 0.1 -13 2 -13 1.9 0 2 0.7 2 10.8 0 11.9 -0.6 15.2 -2.6 15.2 -1.1 0 -1.4 -2.6 -1.4 -13z"/>
  <path d="M1494 602 c0 -10.4 0.3 -13 1.4 -13 2 0 2.6 3.3 2.6 15.3 0 10 -0.1 10.7 -2 10.7 -1.9 0 -2 -0.7 -2 -13z"/>
  <path d="M108 603.3 c0 -7.2 0.8 -10.3 2.6 -10.3 1.1 0 1.4 1.9 1.4 8 0 7.3 -0.2 8 -2 8 -1.8 0 -2 -0.7 -2 -5.7z"/>
  <path d="M1935.8 605.3 c-1.9 -0.5 -2.5 -3.3 -0.8 -3.3 0.6 0 1 -2 1 -4.5 0 -3.3 0.4 -4.5 1.5 -4.5 1.6 0 2.9 5.1 2.3 9.5 -0.3 3 -1.1 3.6 -4 2.8z"/>
  <path d="M1915.8 604.3 c-1 -0.2 -1.8 -1.1 -1.8 -1.9 0 -1.1 1.7 -1.4 8 -1.4 7.3 0 8 0.2 8 2 0 1.8 -0.6 2 -6.2 1.9 -3.5 -0.1 -7.1 -0.3 -8 -0.6z"/>
  <path d="M1894.8 603.3 c-1 -0.2 -1.8 -1.1 -1.8 -1.9 0 -1.1 1.7 -1.4 8 -1.4 7.3 0 8 0.2 8 2 0 1.8 -0.6 2 -6.2 1.9 -3.5 -0.1 -7.1 -0.3 -8 -0.6z"/>
  <path d="M1873.8 602.3 c-1 -0.2 -1.8 -1.1 -1.8 -1.9 0 -1.1 1.8 -1.4 8.5 -1.4 7.8 0 8.5 0.2 8.5 2 0 1.8 -0.6 2 -6.7 1.9 -3.8 -0.1 -7.6 -0.3 -8.5 -0.6z"/>
  <path d="M1853.8 601.3 c-1 -0.2 -1.8 -1.1 -1.8 -1.9 0 -1.1 1.7 -1.4 8 -1.4 7.3 0 8 0.2 8 2 0 1.8 -0.6 2 -6.2 1.9 -3.5 -0.1 -7.1 -0.3 -8 -0.6z"/>
  <path d="M1832.8 600.3 c-1 -0.2 -1.8 -1.1 -1.8 -1.9 0 -1.1 1.7 -1.4 8 -1.4 7.3 0 8 0.2 8 2 0 1.8 -0.6 2 -6.2 1.9 -3.5 -0.1 -7.1 -0.3 -8 -0.6z"/>
  <path d="M1811.8 599.3 c-1 -0.2 -1.8 -1.1 -1.8 -1.9 0 -1.1 1.8 -1.4 8.5 -1.4 7.8 0 8.5 0.2 8.5 2 0 1.8 -0.6 2 -6.7 1.9 -3.8 -0.1 -7.6 -0.3 -8.5 -0.6z"/>
  <path d="M1791.8 598.3 c-1 -0.2 -1.8 -1.1 -1.8 -1.9 0 -1.1 1.7 -1.4 8 -1.4 7.3 0 8 0.2 8 2 0 1.8 -0.6 2 -6.2 1.9 -3.5 -0.1 -7.1 -0.3 -8 -0.6z"/>
  <path d="M1770.8 597.3 c-1 -0.2 -1.8 -1.1 -1.8 -1.9 0 -1.1 1.7 -1.4 8 -1.4 7.3 0 8 0.2 8 2 0 1.8 -0.6 2 -6.2 1.9 -3.5 -0.1 -7.1 -0.3 -8 -0.6z"/>
  <path d="M1749.8 596.3 c-1 -0.2 -1.8 -1.1 -1.8 -1.9 0 -1.1 1.8 -1.4 8.5 -1.4 7.8 0 8.5 0.2 8.5 2 0 1.8 -0.6 2 -6.7 1.9 -3.8 -0.1 -7.6 -0.3 -8.5 -0.6z"/>
  <path d="M1729.8 595.3 c-1 -0.2 -1.8 -1.1 -1.8 -1.9 0 -1.1 1.7 -1.4 8 -1.4 7.3 0 8 0.2 8 2 0 1.8 -0.6 2 -6.2 1.9 -3.5 -0.1 -7.1 -0.3 -8 -0.6z"/>
  <path d="M1708.8 594.3 c-1 -0.2 -1.8 -1.1 -1.8 -1.9 0 -1.1 1.7 -1.4 8 -1.4 7.3 0 8 0.2 8 2 0 1.8 -0.6 2 -6.2 1.9 -3.5 -0.1 -7.1 -0.3 -8 -0.6z"/>
  <path d="M1687.8 593.3 c-1 -0.2 -1.8 -1.1 -1.8 -1.9 0 -1.1 1.8 -1.4 8.5 -1.4 7.8 0 8.5 0.2 8.5 2 0 1.8 -0.6 2 -6.7 1.9 -3.8 -0.1 -7.6 -0.3 -8.5 -0.6z"/>
  <path d="M1667.8 592.3 c-1 -0.2 -1.8 -1.1 -1.8 -1.9 0 -1.1 1.7 -1.4 8 -1.4 7.3 0 8 0.2 8 2 0 1.8 -0.6 2 -6.2 1.9 -3.5 -0.1 -7.1 -0.3 -8 -0.6z"/>
  <path d="M1646.8 591.3 c-1 -0.2 -1.8 -1.1 -1.8 -1.9 0 -1.1 1.7 -1.4 8 -1.4 7.3 0 8 0.2 8 2 0 1.8 -0.6 2 -6.2 1.9 -3.5 -0.1 -7.1 -0.3 -8 -0.6z"/>
  <path d="M447 589.6 c0 -1.8 3.1 -2.6 10.8 -2.6 5.5 0 6.2 0.2 6.2 2 0 1.8 -0.7 2 -8.5 2 -6.6 0 -8.5 -0.3 -8.5 -1.4z"/>
  <path d="M1626.8 590.3 c-1 -0.2 -1.8 -1.1 -1.8 -1.9 0 -1.1 1.7 -1.4 8 -1.4 7.3 0 8 0.2 8 2 0 1.8 -0.6 2 -6.2 1.9 -3.5 -0.1 -7.1 -0.3 -8 -0.6z"/>
  <path d="M468 588.6 c0 -1.8 3.1 -2.6 10.3 -2.6 5 0 5.7 0.2 5.7 2 0 1.8 -0.7 2 -8 2 -6.1 0 -8 -0.3 -8 -1.4z"/>
  <path d="M1605.8 589.3 c-1 -0.2 -1.8 -1.1 -1.8 -1.9 0 -1.1 1.7 -1.4 8 -1.4 7.3 0 8 0.2 8 2 0 1.8 -0.6 2 -6.2 1.9 -3.5 -0.1 -7.1 -0.3 -8 -0.6z"/>
  <path d="M109 583.3 c0 -7.2 0.8 -10.3 2.6 -10.3 1.1 0 1.4 1.9 1.4 8 0 7.3 -0.2 8 -2 8 -1.8 0 -2 -0.7 -2 -5.7z"/>
  <path d="M489 587.6 c0 -1.8 3.1 -2.6 10.3 -2.6 5 0 5.7 0.2 5.7 2 0 1.8 -0.7 2 -8 2 -6.1 0 -8 -0.3 -8 -1.4z"/>
  <path d="M1584.8 588.3 c-1 -0.2 -1.8 -1.1 -1.8 -1.9 0 -1.1 1.8 -1.4 8.5 -1.4 7.8 0 8.5 0.2 8.5 2 0 1.8 -0.6 2 -6.7 1.9 -3.8 -0.1 -7.6 -0.3 -8.5 -0.6z"/>
  <path d="M1935 581 c0 -6.1 0.3 -8 1.4 -8 1.8 0 2.6 3.1 2.6 10.3 0 5 -0.2 5.7 -2 5.7 -1.8 0 -2 -0.7 -2 -8z"/>
  <path d="M509 586.6 c0 -1.8 3.1 -2.6 10.8 -2.6 5.5 0 6.2 0.2 6.2 2 0 1.8 -0.7 2 -8.5 2 -6.6 0 -8.5 -0.3 -8.5 -1.4z"/>
  <path d="M1564.8 587.3 c-1 -0.2 -1.8 -1.1 -1.8 -1.9 0 -1.1 1.7 -1.4 8 -1.4 7.3 0 8 0.2 8 2 0 1.8 -0.6 2 -6.2 1.9 -3.5 -0.1 -7.1 -0.3 -8 -0.6z"/>
  <path d="M530 585.6 c0 -1.8 3.1 -2.6 10.3 -2.6 5 0 5.7 0.2 5.7 2 0 1.8 -0.7 2 -8 2 -6.1 0 -8 -0.3 -8 -1.4z"/>
  <path d="M1543.8 586.3 c-1 -0.2 -1.8 -1.1 -1.8 -1.9 0 -1.1 1.7 -1.4 8 -1.4 7.3 0 8 0.2 8 2 0 1.8 -0.6 2 -6.2 1.9 -3.5 -0.1 -7.1 -0.3 -8 -0.6z"/>
  <path d="M438 575 c0 -10.3 0.1 -11 2 -11 1.8 0 2 0.7 2 8.8 0 10 -0.7 13.2 -2.6 13.2 -1.1 0 -1.4 -2.3 -1.4 -11z"/>
  <path d="M1522.8 585.3 c-1 -0.2 -1.8 -1.1 -1.8 -1.9 0 -1.1 1.8 -1.4 8.5 -1.4 7.8 0 8.5 0.2 8.5 2 0 1.8 -0.6 2 -6.7 1.9 -3.8 -0.1 -7.6 -0.3 -8.5 -0.6z"/>
  <path d="M1502.8 584.3 c-1 -0.2 -1.8 -1.1 -1.8 -1.9 0 -1.1 1.7 -1.4 8 -1.4 7.3 0 8 0.2 8 2 0 1.8 -0.6 2 -6.2 1.9 -3.5 -0.1 -7.1 -0.3 -8 -0.6z"/>
  <path d="M662 560.8 c0 -14.5 0.5 -17.8 2.6 -17.8 1.1 0 1.4 3 1.4 15.5 0 14.8 -0.1 15.5 -2 15.5 -1.9 0 -2 -0.7 -2 -13.2z"/>
  <path d="M110 563.3 c0 -7.2 0.8 -10.3 2.6 -10.3 1.1 0 1.4 1.9 1.4 8 0 7.3 -0.2 8 -2 8 -1.8 0 -2 -0.7 -2 -5.7z"/>
  <path d="M1934 561 c0 -6.1 0.3 -8 1.4 -8 1.8 0 2.6 3.1 2.6 10.3 0 5 -0.2 5.7 -2 5.7 -1.8 0 -2 -0.7 -2 -8z"/>
  <path d="M439 543 c0 -10.3 0.1 -11 2 -11 1.8 0 2 0.7 2 8.8 0 10 -0.7 13.2 -2.6 13.2 -1.1 0 -1.4 -2.3 -1.4 -11z"/>
  <path d="M111 543.3 c0 -7.2 0.8 -10.3 2.6 -10.3 1.1 0 1.4 1.9 1.4 8 0 7.3 -0.2 8 -2 8 -1.8 0 -2 -0.7 -2 -5.7z"/>
  <path d="M1933 540.5 c0 -6.6 0.3 -8.5 1.4 -8.5 1.8 0 2.6 3.1 2.6 10.8 0 5.5 -0.2 6.2 -2 6.2 -1.8 0 -2 -0.7 -2 -8.5z"/>
  <path d="M112 522.8 c0 -7.7 0.8 -10.8 2.6 -10.8 1.1 0 1.4 1.9 1.4 8.5 0 7.8 -0.2 8.5 -2 8.5 -1.8 0 -2 -0.7 -2 -6.2z"/>
  <path d="M1932 520 c0 -6.1 0.3 -8 1.4 -8 1.8 0 2.6 3.1 2.6 10.3 0 5 -0.2 5.7 -2 5.7 -1.8 0 -2 -0.7 -2 -8z"/>
  <path d="M1161.6 523.8 c-0.3 -1.3 -0.6 -17.7 -0.6 -36.5 0 -33.6 0 -34.3 2 -34.3 2 0 2 0.7 2 36.5 0 30.4 -0.2 36.5 -1.4 36.5 -0.7 0 -1.6 -1 -2 -2.2z"/>
  <path d="M663 509.8 c0 -14.5 0.5 -17.8 2.6 -17.8 1.1 0 1.4 3 1.4 15.5 0 14.8 -0.1 15.5 -2 15.5 -1.9 0 -2 -0.7 -2 -13.2z"/>
  <path d="M440 511 c0 -10.3 0.1 -11 2 -11 1.8 0 2 0.7 2 8.8 0 10 -0.7 13.2 -2.6 13.2 -1.1 0 -1.4 -2.3 -1.4 -11z"/>
  <path d="M113 502.3 c0 -7.2 0.8 -10.3 2.6 -10.3 1.1 0 1.4 1.9 1.4 8 0 7.3 -0.2 8 -2 8 -1.8 0 -2 -0.7 -2 -5.7z"/>
  <path d="M1931 500 c0 -6.1 0.3 -8 1.4 -8 1.8 0 2.6 3.1 2.6 10.3 0 5 -0.2 5.7 -2 5.7 -1.8 0 -2 -0.7 -2 -8z"/>
  <path d="M441 479.5 c0 -9.8 0.1 -10.5 2 -10.5 1.8 0 2 0.7 2 8.3 0 9.5 -0.7 12.7 -2.6 12.7 -1.1 0 -1.4 -2.2 -1.4 -10.5z"/>
  <path d="M114 482.3 c0 -7.2 0.8 -10.3 2.6 -10.3 1.1 0 1.4 1.9 1.4 8 0 7.3 -0.2 8 -2 8 -1.8 0 -2 -0.7 -2 -5.7z"/>
  <path d="M1930 480 c0 -6.1 0.3 -8 1.4 -8 1.8 0 2.6 3.1 2.6 10.3 0 5 -0.2 5.7 -2 5.7 -1.8 0 -2 -0.7 -2 -8z"/>
  <path d="M664 458.3 c0 -15 0.5 -18.3 2.6 -18.3 1.1 0 1.4 3 1.4 16 0 15.3 -0.1 16 -2 16 -1.9 0 -2 -0.7 -2 -13.7z"/>
  <path d="M115 462.3 c0 -7.2 0.8 -10.3 2.6 -10.3 1.1 0 1.4 1.9 1.4 8 0 7.3 -0.2 8 -2 8 -1.8 0 -2 -0.7 -2 -5.7z"/>
  <path d="M1929 459.5 c0 -6.6 0.3 -8.5 1.4 -8.5 1.8 0 2.6 3.1 2.6 10.8 0 5.5 -0.2 6.2 -2 6.2 -1.8 0 -2 -0.7 -2 -8.5z"/>
  <path d="M442 448 c0 -10.3 0.1 -11 2 -11 1.8 0 2 0.7 2 8.8 0 10 -0.7 13.2 -2.6 13.2 -1.1 0 -1.4 -2.3 -1.4 -11z"/>
  <path d="M116 441.8 c0 -7.7 0.8 -10.8 2.6 -10.8 1.1 0 1.4 1.9 1.4 8.5 0 7.8 -0.2 8.5 -2 8.5 -1.8 0 -2 -0.7 -2 -6.2z"/>
  <path d="M1928 439 c0 -6.1 0.3 -8 1.4 -8 1.8 0 2.6 3.1 2.6 10.3 0 5 -0.2 5.7 -2 5.7 -1.8 0 -2 -0.7 -2 -8z"/>
  <path d="M117 423.1 c0 -4.5 1.1 -5.1 10.3 -5.1 5 0 5.7 0.2 5.7 2 0 1.8 -0.7 2 -6 2 -5.7 0 -6 0.1 -6 2.5 0 1.8 -0.5 2.5 -2 2.5 -1.7 0 -2 -0.7 -2 -3.9z"/>
  <path d="M443 416.5 l0 -10.5 -2.5 0 c-1.5 0 -2.5 -0.6 -2.5 -1.4 0 -1.4 2.9 -2.6 6.8 -2.6 2.1 0 2.2 0.3 2.2 10.3 0 11.5 -0.6 14.7 -2.6 14.7 -1.1 0 -1.4 -2.2 -1.4 -10.5z"/>
  <path d="M1927 424.5 c0 -2.4 -0.3 -2.5 -6 -2.5 -5.3 0 -6 -0.2 -6 -2 0 -1.8 0.7 -2 5.8 -2 9.1 0 10.2 0.6 10.2 5.1 0 3.2 -0.3 3.9 -2 3.9 -1.5 0 -2 -0.7 -2 -2.5z"/>
  <path d="M137 419.6 c0 -1.8 3.1 -2.6 10.3 -2.6 5 0 5.7 0.2 5.7 2 0 1.8 -0.7 2 -8 2 -6.1 0 -8 -0.3 -8 -1.4z"/>
  <path d="M665.2 406.3 l0.3 -14.8 4.8 -0.3 c4.2 -0.3 4.7 -0.1 4.7 1.7 0 1.7 -0.6 2.1 -3 2.1 l-3 0 0 13 c0 12.4 -0.1 13 -2 13 -2 0 -2 -0.5 -1.8 -14.7z"/>
  <path d="M1895 419 c0 -1.8 0.7 -2 5.8 -2 7.1 0 10.2 0.8 10.2 2.6 0 1.1 -1.9 1.4 -8 1.4 -7.3 0 -8 -0.2 -8 -2z"/>
  <path d="M157 418.6 c0 -1.8 3.1 -2.6 10.3 -2.6 5 0 5.7 0.2 5.7 2 0 1.8 -0.7 2 -8 2 -6.1 0 -8 -0.3 -8 -1.4z"/>
  <path d="M1875 418 c0 -1.8 0.7 -2 5.8 -2 7.1 0 10.2 0.8 10.2 2.6 0 1.1 -1.9 1.4 -8 1.4 -7.3 0 -8 -0.2 -8 -2z"/>
  <path d="M177 417.6 c0 -1.8 3.1 -2.6 10.3 -2.6 5 0 5.7 0.2 5.7 2 0 1.8 -0.7 2 -8 2 -6.1 0 -8 -0.3 -8 -1.4z"/>
  <path d="M1855 417 c0 -1.8 0.7 -2 5.8 -2 7.1 0 10.2 0.8 10.2 2.6 0 1.1 -1.9 1.4 -8 1.4 -7.3 0 -8 -0.2 -8 -2z"/>
  <path d="M197 416.6 c0 -1.8 3.1 -2.6 10.3 -2.6 5 0 5.7 0.2 5.7 2 0 1.8 -0.7 2 -8 2 -6.1 0 -8 -0.3 -8 -1.4z"/>
  <path d="M1835 416 c0 -1.8 0.7 -2 5.8 -2 7.1 0 10.2 0.8 10.2 2.6 0 1.1 -1.9 1.4 -8 1.4 -7.3 0 -8 -0.2 -8 -2z"/>
  <path d="M217 415.6 c0 -1.8 3.1 -2.6 10.8 -2.6 5.5 0 6.2 0.2 6.2 2 0 1.8 -0.7 2 -8.5 2 -6.6 0 -8.5 -0.3 -8.5 -1.4z"/>
  <path d="M1814 415 c0 -1.8 0.7 -2 6.3 -2 7.6 0 10.7 0.8 10.7 2.6 0 1.1 -1.9 1.4 -8.5 1.4 -7.8 0 -8.5 -0.2 -8.5 -2z"/>
  <path d="M238 414.6 c0 -1.8 3.1 -2.6 10.3 -2.6 5 0 5.7 0.2 5.7 2 0 1.8 -0.7 2 -8 2 -6.1 0 -8 -0.3 -8 -1.4z"/>
  <path d="M1794 414 c0 -1.8 0.7 -2 5.8 -2 7.1 0 10.2 0.8 10.2 2.6 0 1.1 -1.9 1.4 -8 1.4 -7.3 0 -8 -0.2 -8 -2z"/>
  <path d="M258 413.6 c0 -1.8 3.1 -2.6 10.3 -2.6 5 0 5.7 0.2 5.7 2 0 1.8 -0.7 2 -8 2 -6.1 0 -8 -0.3 -8 -1.4z"/>
  <path d="M1774 413 c0 -1.8 0.7 -2 5.8 -2 7.1 0 10.2 0.8 10.2 2.6 0 1.1 -1.9 1.4 -8 1.4 -7.3 0 -8 -0.2 -8 -2z"/>
  <path d="M278 412.6 c0 -1.8 3.1 -2.6 10.3 -2.6 5 0 5.7 0.2 5.7 2 0 1.8 -0.7 2 -8 2 -6.1 0 -8 -0.3 -8 -1.4z"/>
  <path d="M1754 412 c0 -1.8 0.7 -2 5.8 -2 7.1 0 10.2 0.8 10.2 2.6 0 1.1 -1.9 1.4 -8 1.4 -7.3 0 -8 -0.2 -8 -2z"/>
  <path d="M298 411.6 c0 -1.8 3.1 -2.6 10.3 -2.6 5 0 5.7 0.2 5.7 2 0 1.8 -0.7 2 -8 2 -6.1 0 -8 -0.3 -8 -1.4z"/>
  <path d="M1734 411 c0 -1.8 0.7 -2 5.8 -2 7.1 0 10.2 0.8 10.2 2.6 0 1.1 -1.9 1.4 -8 1.4 -7.3 0 -8 -0.2 -8 -2z"/>
  <path d="M318 410.6 c0 -1.8 3.1 -2.6 10.3 -2.6 5 0 5.7 0.2 5.7 2 0 1.8 -0.7 2 -8 2 -6.1 0 -8 -0.3 -8 -1.4z"/>
  <path d="M1714 410 c0 -1.8 0.7 -2 5.8 -2 7.1 0 10.2 0.8 10.2 2.6 0 1.1 -1.9 1.4 -8 1.4 -7.3 0 -8 -0.2 -8 -2z"/>
  <path d="M338 409.6 c0 -1.8 3.1 -2.6 10.3 -2.6 5 0 5.7 0.2 5.7 2 0 1.8 -0.7 2 -8 2 -6.1 0 -8 -0.3 -8 -1.4z"/>
  <path d="M1694 409 c0 -1.8 0.7 -2 5.8 -2 7.1 0 10.2 0.8 10.2 2.6 0 1.1 -1.9 1.4 -8 1.4 -7.3 0 -8 -0.2 -8 -2z"/>
  <path d="M358 408.6 c0 -1.8 3.1 -2.6 10.3 -2.6 5 0 5.7 0.2 5.7 2 0 1.8 -0.7 2 -8 2 -6.1 0 -8 -0.3 -8 -1.4z"/>
  <path d="M1674 408 c0 -1.8 0.7 -2 5.8 -2 7.1 0 10.2 0.8 10.2 2.6 0 1.1 -1.9 1.4 -8 1.4 -7.3 0 -8 -0.2 -8 -2z"/>
  <path d="M378 407.6 c0 -1.8 3.1 -2.6 10.3 -2.6 5 0 5.7 0.2 5.7 2 0 1.8 -0.7 2 -8 2 -6.1 0 -8 -0.3 -8 -1.4z"/>
  <path d="M1654 407 c0 -1.8 0.7 -2 5.8 -2 7.1 0 10.2 0.8 10.2 2.6 0 1.1 -1.9 1.4 -8 1.4 -7.3 0 -8 -0.2 -8 -2z"/>
  <path d="M398 406.6 c0 -1.8 3.1 -2.6 10.3 -2.6 5 0 5.7 0.2 5.7 2 0 1.8 -0.7 2 -8 2 -6.1 0 -8 -0.3 -8 -1.4z"/>
  <path d="M1634 406 c0 -1.8 0.7 -2 5.8 -2 7.1 0 10.2 0.8 10.2 2.6 0 1.1 -1.9 1.4 -8 1.4 -7.3 0 -8 -0.2 -8 -2z"/>
  <path d="M418 405.6 c0 -1.8 3.1 -2.6 10.3 -2.6 5 0 5.7 0.2 5.7 2 0 1.8 -0.7 2 -8 2 -6.1 0 -8 -0.3 -8 -1.4z"/>
  <path d="M1614 405 c0 -1.8 0.7 -2 5.8 -2 7.1 0 10.2 0.8 10.2 2.6 0 1.1 -1.9 1.4 -8 1.4 -7.3 0 -8 -0.2 -8 -2z"/>
  <path d="M1594 404 c0 -1.8 0.7 -2 5.8 -2 7.1 0 10.2 0.8 10.2 2.6 0 1.1 -1.9 1.4 -8 1.4 -7.3 0 -8 -0.2 -8 -2z"/>
  <path d="M1574 403 c0 -1.8 0.7 -2 5.8 -2 7.1 0 10.2 0.8 10.2 2.6 0 1.1 -1.9 1.4 -8 1.4 -7.3 0 -8 -0.2 -8 -2z"/>
  <path d="M1554 402 c0 -1.8 0.7 -2 5.8 -2 7.1 0 10.2 0.8 10.2 2.6 0 1.1 -1.9 1.4 -8 1.4 -7.3 0 -8 -0.2 -8 -2z"/>
  <path d="M1533 401 c0 -1.8 0.7 -2 5.8 -2 7.1 0 10.2 0.8 10.2 2.6 0 1.1 -1.9 1.4 -8 1.4 -7.3 0 -8 -0.2 -8 -2z"/>
  <path d="M1513 400 c0 -1.8 0.7 -2 5.8 -2 7.1 0 10.2 0.8 10.2 2.6 0 1.1 -1.9 1.4 -8 1.4 -7.3 0 -8 -0.2 -8 -2z"/>
  <path d="M1493 399 c0 -1.8 0.7 -2 5.8 -2 7.1 0 10.2 0.8 10.2 2.6 0 1.1 -1.9 1.4 -8 1.4 -7.3 0 -8 -0.2 -8 -2z"/>
  <path d="M1473 398 c0 -1.8 0.7 -2 5.8 -2 7.1 0 10.2 0.8 10.2 2.6 0 1.1 -1.9 1.4 -8 1.4 -7.3 0 -8 -0.2 -8 -2z"/>
  <path d="M1453 397 c0 -1.8 0.7 -2 5.8 -2 7.1 0 10.2 0.8 10.2 2.6 0 1.1 -1.9 1.4 -8 1.4 -7.3 0 -8 -0.2 -8 -2z"/>
  <path d="M1433 396 c0 -1.8 0.7 -2 5.8 -2 7.1 0 10.2 0.8 10.2 2.6 0 1.1 -1.9 1.4 -8 1.4 -7.3 0 -8 -0.2 -8 -2z"/>
  <path d="M1413 395 c0 -1.8 0.7 -2 5.8 -2 7.1 0 10.2 0.8 10.2 2.6 0 1.1 -1.9 1.4 -8 1.4 -7.3 0 -8 -0.2 -8 -2z"/>
  <path d="M1393 394 c0 -1.8 0.7 -2 5.8 -2 7.1 0 10.2 0.8 10.2 2.6 0 1.1 -1.9 1.4 -8 1.4 -7.3 0 -8 -0.2 -8 -2z"/>
  <path d="M1373 393 c0 -1.8 0.7 -2 5.8 -2 7.1 0 10.2 0.8 10.2 2.6 0 1.1 -1.9 1.4 -8 1.4 -7.3 0 -8 -0.2 -8 -2z"/>
  <path d="M679 392.6 c0 -1.8 3.1 -2.6 10.3 -2.6 5 0 5.7 0.2 5.7 2 0 1.8 -0.7 2 -8 2 -6.1 0 -8 -0.3 -8 -1.4z"/>
  <path d="M1353 392 c0 -1.8 0.7 -2 5.8 -2 7.1 0 10.2 0.8 10.2 2.6 0 1.1 -1.9 1.4 -8 1.4 -7.3 0 -8 -0.2 -8 -2z"/>
  <path d="M699 391.6 c0 -1.8 3.1 -2.6 10.3 -2.6 5 0 5.7 0.2 5.7 2 0 1.8 -0.7 2 -8 2 -6.1 0 -8 -0.3 -8 -1.4z"/>
  <path d="M1160.6 390.8 c-0.9 -3.6 -0.7 -9.6 0.4 -10.3 0.6 -0.4 2.4 -0.4 4 0 3.3 0.7 4.1 3.5 1 3.5 -1.7 0 -2 0.7 -2 4.5 0 4.9 -2.3 6.4 -3.4 2.3z"/>
  <path d="M1333 391 c0 -1.8 0.7 -2 5.8 -2 7.1 0 10.2 0.8 10.2 2.6 0 1.1 -1.9 1.4 -8 1.4 -7.3 0 -8 -0.2 -8 -2z"/>
  <path d="M719 390.6 c0 -1.8 3.1 -2.6 10.3 -2.6 5 0 5.7 0.2 5.7 2 0 1.8 -0.7 2 -8 2 -6.1 0 -8 -0.3 -8 -1.4z"/>
  <path d="M1313 390 c0 -1.8 0.7 -2 5.8 -2 7.1 0 10.2 0.8 10.2 2.6 0 1.1 -1.9 1.4 -8 1.4 -7.3 0 -8 -0.2 -8 -2z"/>
  <path d="M739 389.6 c0 -1.8 3.1 -2.6 10.3 -2.6 5 0 5.7 0.2 5.7 2 0 1.8 -0.7 2 -8 2 -6.1 0 -8 -0.3 -8 -1.4z"/>
  <path d="M1293 389 c0 -1.8 0.7 -2 5.8 -2 7.1 0 10.2 0.8 10.2 2.6 0 1.1 -1.9 1.4 -8 1.4 -7.3 0 -8 -0.2 -8 -2z"/>
  <path d="M759 388.6 c0 -1.8 3.1 -2.6 10.8 -2.6 5.5 0 6.2 0.2 6.2 2 0 1.8 -0.7 2 -8.5 2 -6.6 0 -8.5 -0.3 -8.5 -1.4z"/>
  <path d="M1272 388 c0 -1.8 0.7 -2 6.3 -2 7.6 0 10.7 0.8 10.7 2.6 0 1.1 -1.9 1.4 -8.5 1.4 -7.8 0 -8.5 -0.2 -8.5 -2z"/>
  <path d="M780 387.6 c0 -1.8 3.1 -2.6 10.3 -2.6 5 0 5.7 0.2 5.7 2 0 1.8 -0.7 2 -8 2 -6.1 0 -8 -0.3 -8 -1.4z"/>
  <path d="M1252 387 c0 -1.8 0.7 -2 5.8 -2 7.1 0 10.2 0.8 10.2 2.6 0 1.1 -1.9 1.4 -8 1.4 -7.3 0 -8 -0.2 -8 -2z"/>
  <path d="M800 386.6 c0 -1.8 3.1 -2.6 10.3 -2.6 5 0 5.7 0.2 5.7 2 0 1.8 -0.7 2 -8 2 -6.1 0 -8 -0.3 -8 -1.4z"/>
  <path d="M1232 386 c0 -1.8 0.7 -2 5.8 -2 7.1 0 10.2 0.8 10.2 2.6 0 1.1 -1.9 1.4 -8 1.4 -7.3 0 -8 -0.2 -8 -2z"/>
  <path d="M820 385.6 c0 -1.8 3.1 -2.6 10.3 -2.6 5 0 5.7 0.2 5.7 2 0 1.8 -0.7 2 -8 2 -6.1 0 -8 -0.3 -8 -1.4z"/>
  <path d="M1212 385 c0 -1.8 0.7 -2 5.8 -2 7.1 0 10.2 0.8 10.2 2.6 0 1.1 -1.9 1.4 -8 1.4 -7.3 0 -8 -0.2 -8 -2z"/>
  <path d="M840 384.6 c0 -1.8 3.1 -2.6 10.3 -2.6 5 0 5.7 0.2 5.7 2 0 1.8 -0.7 2 -8 2 -6.1 0 -8 -0.3 -8 -1.4z"/>
  <path d="M1192 384 c0 -1.8 0.7 -2 5.8 -2 7.1 0 10.2 0.8 10.2 2.6 0 1.1 -1.9 1.4 -8 1.4 -7.3 0 -8 -0.2 -8 -2z"/>
  <path d="M860 383.6 c0 -1.8 3.1 -2.6 10.3 -2.6 5 0 5.7 0.2 5.7 2 0 1.8 -0.7 2 -8 2 -6.1 0 -8 -0.3 -8 -1.4z"/>
  <path d="M1172 383 c0 -1.8 0.7 -2 5.8 -2 7.1 0 10.2 0.8 10.2 2.6 0 1.1 -1.9 1.4 -8 1.4 -7.3 0 -8 -0.2 -8 -2z"/>
  <path d="M880 382.6 c0 -1.8 3.1 -2.6 10.3 -2.6 5 0 5.7 0.2 5.7 2 0 1.8 -0.7 2 -8 2 -6.1 0 -8 -0.3 -8 -1.4z"/>
  <path d="M900 381.6 c0 -1.8 3.1 -2.6 10.3 -2.6 5 0 5.7 0.2 5.7 2 0 1.8 -0.7 2 -8 2 -6.1 0 -8 -0.3 -8 -1.4z"/>
  <path d="M920 380.6 c0 -1.8 3.1 -2.6 10.3 -2.6 5 0 5.7 0.2 5.7 2 0 1.8 -0.7 2 -8 2 -6.1 0 -8 -0.3 -8 -1.4z"/>
  <path d="M940 379.6 c0 -1.8 3.1 -2.6 10.3 -2.6 5 0 5.7 0.2 5.7 2 0 1.8 -0.7 2 -8 2 -6.1 0 -8 -0.3 -8 -1.4z"/>
  <path d="M960 378.6 c0 -1.8 3.1 -2.6 10.3 -2.6 5 0 5.7 0.2 5.7 2 0 1.8 -0.7 2 -8 2 -6.1 0 -8 -0.3 -8 -1.4z"/>
  <path d="M980 377.6 c0 -1.8 3.1 -2.6 10.3 -2.6 5 0 5.7 0.2 5.7 2 0 1.8 -0.7 2 -8 2 -6.1 0 -8 -0.3 -8 -1.4z"/>
 </g>
 <g fill="#a0a0a0">
  <path d="M121.2 1530.5 c-33.2 -95.1 -51.2 -147.7 -51.2 -150.2 0 -5.3 1 -8.3 2.6 -8.3 1 0 1.4 1.4 1.4 5 0 5 0 5 3.3 5 1.7 0 77 -3.2 167.2 -7 90.2 -3.8 165.7 -7 167.8 -7 2.9 0 3.7 0.4 3.7 1.8 0 1 18.9 67.2 41.9 147.2 36.4 126.3 41.7 145.6 40.2 146.2 -0.9 0.3 -72.5 3.4 -159.1 6.7 -86.6 3.4 -159.5 6.4 -162 6.6 l-4.5 0.5 -51.3 -146.5z"/>
  <path d="M1490.5 1661.2 c-210.1 -8.5 -382.1 -15.5 -382.2 -15.6 -0.1 -0.1 13.3 -65.6 29.7 -145.6 l30 -145.5 0 -17.2 c0 -16.6 0.1 -17.3 2 -17.3 1.9 0 2 0.7 2 13.9 l0 13.9 9.3 0.6 c9.4 0.7 784.9 33.6 790 33.6 2.6 0 2.7 -0.2 2.7 -5 0 -3.6 0.4 -5 1.4 -5 1.6 0 2.6 3 2.6 8.3 0 5.8 -102 296.7 -104 296.6 -0.8 -0.1 -173.4 -7.1 -383.5 -15.7z"/>
  <path d="M719.4 1652.5 c-0.2 -1.1 -16.6 -67.7 -36.4 -147.9 -34.1 -138.2 -36 -146.4 -36 -155 0 -10.4 0.6 -13.6 2.6 -13.6 1.1 0 1.4 2.3 1.4 10.9 l0 10.9 7.3 -0.4 c3.9 -0.3 76.5 -3.4 161.2 -6.9 84.7 -3.6 159.1 -6.7 165.3 -7.1 11.1 -0.6 11.2 -0.6 11.2 1.6 0 1.2 12.2 68.1 27.1 148.7 14.9 80.6 26.8 146.7 26.5 147 -0.4 0.4 -218.1 9.5 -321.4 13.5 -7.6 0.3 -8.3 0.1 -8.8 -1.7z"/>
  <path d="M71 1362.3 c0 -7.2 0.8 -10.3 2.6 -10.3 1.1 0 1.4 1.9 1.4 8 0 7.3 -0.2 8 -2 8 -1.8 0 -2 -0.7 -2 -5.7z"/>
  <path d="M1973 1360 c0 -6.1 0.3 -8 1.4 -8 1.8 0 2.6 3.1 2.6 10.3 0 5 -0.2 5.7 -2 5.7 -1.8 0 -2 -0.7 -2 -8z"/>
  <path d="M413 1351 c0 -10.3 0.1 -11 2 -11 1.8 0 2 0.7 2 8.8 0 10 -0.7 13.2 -2.6 13.2 -1.1 0 -1.4 -2.3 -1.4 -11z"/>
  <path d="M72 1342.3 c0 -7.2 0.8 -10.3 2.6 -10.3 1.1 0 1.4 1.9 1.4 8 0 7.3 -0.2 8 -2 8 -1.8 0 -2 -0.7 -2 -5.7z"/>
  <path d="M1972 1339.5 c0 -6.6 0.3 -8.5 1.4 -8.5 1.8 0 2.6 3.1 2.6 10.8 0 5.5 -0.2 6.2 -2 6.2 -1.8 0 -2 -0.7 -2 -8.5z"/>
  <path d="M414 1320 c0 -10.3 0.1 -11 2 -11 1.8 0 2 0.7 2 8.8 0 10 -0.7 13.2 -2.6 13.2 -1.1 0 -1.4 -2.3 -1.4 -11z"/>
  <path d="M73 1321.8 c0 -7.7 0.8 -10.8 2.6 -10.8 1.1 0 1.4 1.9 1.4 8.5 0 7.8 -0.2 8.5 -2 8.5 -1.8 0 -2 -0.7 -2 -6.2z"/>
  <path d="M1971 1319 c0 -6.1 0.3 -8 1.4 -8 1.8 0 2.6 3.1 2.6 10.3 0 5 -0.2 5.7 -2 5.7 -1.8 0 -2 -0.7 -2 -8z"/>
  <path d="M648 1302.3 c0 -15 0.5 -18.3 2.6 -18.3 1.1 0 1.4 3 1.4 16 0 15.3 -0.1 16 -2 16 -1.9 0 -2 -0.7 -2 -13.7z"/>
  <path d="M74 1301.3 c0 -7.2 0.8 -10.3 2.6 -10.3 1.1 0 1.4 1.9 1.4 8 0 7.3 -0.2 8 -2 8 -1.8 0 -2 -0.7 -2 -5.7z"/>
  <path d="M1970 1299 c0 -6.1 0.3 -8 1.4 -8 1.8 0 2.6 3.1 2.6 10.3 0 5 -0.2 5.7 -2 5.7 -1.8 0 -2 -0.7 -2 -8z"/>
  <path d="M415 1288 c0 -10.3 0.1 -11 2 -11 1.8 0 2 0.7 2 8.8 0 10 -0.7 13.2 -2.6 13.2 -1.1 0 -1.4 -2.3 -1.4 -11z"/>
  <path d="M75 1281.3 c0 -7.2 0.8 -10.3 2.6 -10.3 1.1 0 1.4 1.9 1.4 8 0 7.3 -0.2 8 -2 8 -1.8 0 -2 -0.7 -2 -5.7z"/>
  <path d="M1969 1279 c0 -6.1 0.3 -8 1.4 -8 1.8 0 2.6 3.1 2.6 10.3 0 5 -0.2 5.7 -2 5.7 -1.8 0 -2 -0.7 -2 -8z"/>
  <path d="M416 1256.5 c0 -10.8 0.1 -11.5 2 -11.5 1.9 0 2 0.7 2 9.3 0 10.5 -0.6 13.7 -2.6 13.7 -1.1 0 -1.4 -2.4 -1.4 -11.5z"/>
  <path d="M76 1261.3 c0 -7.2 0.8 -10.3 2.6 -10.3 1.1 0 1.4 1.9 1.4 8 0 7.3 -0.2 8 -2 8 -1.8 0 -2 -0.7 -2 -5.7z"/>
  <path d="M1968 1258.5 c0 -6.6 0.3 -8.5 1.4 -8.5 1.8 0 2.6 3.1 2.6 10.8 0 5.5 -0.2 6.2 -2 6.2 -1.8 0 -2 -0.7 -2 -8.5z"/>
  <path d="M649 1251.3 c0 -15 0.5 -18.3 2.6 -18.3 1.1 0 1.4 3 1.4 16 0 15.3 -0.1 16 -2 16 -1.9 0 -2 -0.7 -2 -13.7z"/>
  <path d="M1167.6 1256.8 c-0.3 -1.3 -0.6 -17.7 -0.6 -36.5 0 -33.6 0 -34.3 2 -34.3 2 0 2 0.7 2 36.5 0 30.4 -0.2 36.5 -1.4 36.5 -0.7 0 -1.6 -1 -2 -2.2z"/>
  <path d="M77 1240.8 c0 -7.7 0.8 -10.8 2.6 -10.8 1.1 0 1.4 1.9 1.4 8.5 0 7.8 -0.2 8.5 -2 8.5 -1.8 0 -2 -0.7 -2 -6.2z"/>
  <path d="M1967 1238 c0 -6.1 0.3 -8 1.4 -8 1.8 0 2.6 3.1 2.6 10.3 0 5 -0.2 5.7 -2 5.7 -1.8 0 -2 -0.7 -2 -8z"/>
  <path d="M417 1225 c0 -10.3 0.1 -11 2 -11 1.8 0 2 0.7 2 8.8 0 10 -0.7 13.2 -2.6 13.2 -1.1 0 -1.4 -2.3 -1.4 -11z"/>
  <path d="M78 1220.3 c0 -7.2 0.8 -10.3 2.6 -10.3 1.1 0 1.4 1.9 1.4 8 0 7.3 -0.2 8 -2 8 -1.8 0 -2 -0.7 -2 -5.7z"/>
  <path d="M1966 1218 c0 -6.1 0.3 -8 1.4 -8 1.8 0 2.6 3.1 2.6 10.3 0 5 -0.2 5.7 -2 5.7 -1.8 0 -2 -0.7 -2 -8z"/>
  <path d="M650 1200.3 c0 -15 0.5 -18.3 2.6 -18.3 1.1 0 1.4 3 1.4 16 0 15.3 -0.1 16 -2 16 -1.9 0 -2 -0.7 -2 -13.7z"/>
  <path d="M79 1200.3 c0 -7.2 0.8 -10.3 2.6 -10.3 1.1 0 1.4 1.9 1.4 8 0 7.3 -0.2 8 -2 8 -1.8 0 -2 -0.7 -2 -5.7z"/>
  <path d="M1965 1198 c0 -6.1 0.3 -8 1.4 -8 1.8 0 2.6 3.1 2.6 10.3 0 5 -0.2 5.7 -2 5.7 -1.8 0 -2 -0.7 -2 -8z"/>
  <path d="M418 1193 c0 -10.3 0.1 -11 2 -11 1.8 0 2 0.7 2 8.8 0 10 -0.7 13.2 -2.6 13.2 -1.1 0 -1.4 -2.3 -1.4 -11z"/>
  <path d="M1949 1185 c0 -1.8 0.7 -2 6.8 -2 8 0 11.2 0.8 11.2 2.6 0 1.1 -2 1.4 -9 1.4 -8.3 0 -9 -0.1 -9 -2z"/>
  <path d="M80 1180.3 c0 -7.2 0.8 -10.3 2.6 -10.3 1.1 0 1.4 1.9 1.4 8 0 7.3 -0.2 8 -2 8 -1.8 0 -2 -0.7 -2 -5.7z"/>
  <path d="M1926 1184 c0 -1.8 0.7 -2 6.8 -2 8 0 11.2 0.8 11.2 2.6 0 1.1 -2 1.4 -9 1.4 -8.3 0 -9 -0.1 -9 -2z"/>
  <path d="M1904 1183 c0 -1.8 0.7 -2 6.3 -2 7.6 0 10.7 0.8 10.7 2.6 0 1.1 -1.9 1.4 -8.5 1.4 -7.8 0 -8.5 -0.2 -8.5 -2z"/>
  <path d="M1881 1182 c0 -1.8 0.7 -2 6.3 -2 7.6 0 10.7 0.8 10.7 2.6 0 1.1 -1.9 1.4 -8.5 1.4 -7.8 0 -8.5 -0.2 -8.5 -2z"/>
  <path d="M1858 1181 c0 -1.8 0.7 -2 6.8 -2 8 0 11.2 0.8 11.2 2.6 0 1.1 -2 1.4 -9 1.4 -8.3 0 -9 -0.1 -9 -2z"/>
  <path d="M1836 1180 c0 -1.8 0.7 -2 6.3 -2 7.6 0 10.7 0.8 10.7 2.6 0 1.1 -1.9 1.4 -8.5 1.4 -7.8 0 -8.5 -0.2 -8.5 -2z"/>
  <path d="M1813 1179 c0 -1.8 0.7 -2 6.3 -2 7.6 0 10.7 0.8 10.7 2.6 0 1.1 -1.9 1.4 -8.5 1.4 -7.8 0 -8.5 -0.2 -8.5 -2z"/>
  <path d="M1790 1178 c0 -1.8 0.7 -2 6.8 -2 8 0 11.2 0.8 11.2 2.6 0 1.1 -2 1.4 -9 1.4 -8.3 0 -9 -0.1 -9 -2z"/>
  <path d="M1768 1177 c0 -1.8 0.7 -2 6.3 -2 7.6 0 10.7 0.8 10.7 2.6 0 1.1 -1.9 1.4 -8.5 1.4 -7.8 0 -8.5 -0.2 -8.5 -2z"/>
  <path d="M1745 1176 c0 -1.8 0.7 -2 6.3 -2 7.6 0 10.7 0.8 10.7 2.6 0 1.1 -1.9 1.4 -8.5 1.4 -7.8 0 -8.5 -0.2 -8.5 -2z"/>
  <path d="M1722 1175 c0 -1.8 0.7 -2 6.8 -2 8 0 11.2 0.8 11.2 2.6 0 1.1 -2 1.4 -9 1.4 -8.3 0 -9 -0.1 -9 -2z"/>
  <path d="M1700 1174 c0 -1.8 0.7 -2 6.3 -2 7.6 0 10.7 0.8 10.7 2.6 0 1.1 -1.9 1.4 -8.5 1.4 -7.8 0 -8.5 -0.2 -8.5 -2z"/>
  <path d="M1677 1173 c0 -1.8 0.7 -2 6.3 -2 7.6 0 10.7 0.8 10.7 2.6 0 1.1 -1.9 1.4 -8.5 1.4 -7.8 0 -8.5 -0.2 -8.5 -2z"/>
  <path d="M1654 1172 c0 -1.8 0.7 -2 6.8 -2 8 0 11.2 0.8 11.2 2.6 0 1.1 -2 1.4 -9 1.4 -8.3 0 -9 -0.1 -9 -2z"/>
  <path d="M1632 1171 c0 -1.8 0.7 -2 6.3 -2 7.6 0 10.7 0.8 10.7 2.6 0 1.1 -1.9 1.4 -8.5 1.4 -7.8 0 -8.5 -0.2 -8.5 -2z"/>
  <path d="M419 1161 c0 -10.3 0.1 -11 2 -11 1.8 0 2 0.7 2 8.8 0 10 -0.7 13.2 -2.6 13.2 -1.1 0 -1.4 -2.3 -1.4 -11z"/>
  <path d="M1609 1170 c0 -1.8 0.7 -2 6.3 -2 7.6 0 10.7 0.8 10.7 2.6 0 1.1 -1.9 1.4 -8.5 1.4 -7.8 0 -8.5 -0.2 -8.5 -2z"/>
  <path d="M1586 1169 c0 -1.8 0.7 -2 6.3 -2 7.6 0 10.7 0.8 10.7 2.6 0 1.1 -1.9 1.4 -8.5 1.4 -7.8 0 -8.5 -0.2 -8.5 -2z"/>
  <path d="M1563 1168 c0 -1.8 0.7 -2 6.8 -2 8 0 11.2 0.8 11.2 2.6 0 1.1 -2 1.4 -9 1.4 -8.3 0 -9 -0.1 -9 -2z"/>
  <path d="M1541 1167 c0 -1.8 0.7 -2 6.3 -2 7.6 0 10.7 0.8 10.7 2.6 0 1.1 -1.9 1.4 -8.5 1.4 -7.8 0 -8.5 -0.2 -8.5 -2z"/>
  <path d="M1518 1166 c0 -1.8 0.7 -2 6.3 -2 7.6 0 10.7 0.8 10.7 2.6 0 1.1 -1.9 1.4 -8.5 1.4 -7.8 0 -8.5 -0.2 -8.5 -2z"/>
  <path d="M1508 1161.5 c0 -4.2 0.4 -5.5 1.5 -5.5 1 0 1.7 1.4 2.1 4 0.4 2.4 1.2 4 2 4 0.8 0 1.4 0.7 1.4 1.5 0 1 -1.1 1.5 -3.5 1.5 l-3.5 0 0 -5.5z"/>
  <path d="M81 1159.8 c0 -7.7 0.8 -10.8 2.6 -10.8 1.1 0 1.4 1.9 1.4 8.5 0 7.8 -0.2 8.5 -2 8.5 -1.8 0 -2 -0.7 -2 -6.2z"/>
  <path d="M651 1148.8 c0 -14.5 0.5 -17.8 2.6 -17.8 1.1 0 1.4 3 1.4 15.5 0 14.8 -0.1 15.5 -2 15.5 -1.9 0 -2 -0.7 -2 -13.2z"/>
  <path d="M993 976 c0 -174.3 0 -175 2 -175 2 0 2 0.7 2 172.8 0 95 -0.3 173.7 -0.6 175 -0.4 1.2 -1.3 2.2 -2 2.2 -1.2 0 -1.4 -26.7 -1.4 -175z"/>
  <path d="M82 1139.3 c0 -7.2 0.8 -10.3 2.6 -10.3 1.1 0 1.4 1.9 1.4 8 0 7.3 -0.2 8 -2 8 -1.8 0 -2 -0.7 -2 -5.7z"/>
  <path d="M1507 1130 c0 -10.4 0.3 -13 1.4 -13 2 0 2.6 3.3 2.6 15.3 0 10 -0.1 10.7 -2 10.7 -1.9 0 -2 -0.7 -2 -13z"/>
  <path d="M420 1129.5 c0 -10.8 0.1 -11.5 2 -11.5 1.9 0 2 0.7 2 9.3 0 10.5 -0.6 13.7 -2.6 13.7 -1.1 0 -1.4 -2.4 -1.4 -11.5z"/>
  <path d="M83 1119.8 c0 -7.7 0.8 -10.8 2.6 -10.8 1.1 0 1.4 1.9 1.4 8.5 0 7.8 -0.2 8.5 -2 8.5 -1.8 0 -2 -0.7 -2 -6.2z"/>
  <path d="M1166.6 1123.8 c-0.3 -1.3 -0.6 -17.7 -0.6 -36.5 0 -33.6 0 -34.3 2 -34.3 2 0 2 0.7 2 36.5 0 30.4 -0.2 36.5 -1.4 36.5 -0.7 0 -1.6 -1 -2 -2.2z"/>
  <path d="M652 1098.3 c0 -15 0.5 -18.3 2.6 -18.3 1.1 0 1.4 3 1.4 16 0 15.3 -0.1 16 -2 16 -1.9 0 -2 -0.7 -2 -13.7z"/>
  <path d="M421 1098 c0 -10.3 0.1 -11 2 -11 1.8 0 2 0.7 2 8.8 0 10 -0.7 13.2 -2.6 13.2 -1.1 0 -1.4 -2.3 -1.4 -11z"/>
  <path d="M84 1099.3 c0 -7.2 0.8 -10.3 2.6 -10.3 1.1 0 1.4 1.9 1.4 8 0 7.3 -0.2 8 -2 8 -1.8 0 -2 -0.7 -2 -5.7z"/>
  <path d="M1506 1091 c0 -10.4 0.3 -13 1.4 -13 2 0 2.6 3.3 2.6 15.3 0 10 -0.1 10.7 -2 10.7 -1.9 0 -2 -0.7 -2 -13z"/>
  <path d="M85 1079.3 c0 -7.2 0.8 -10.3 2.6 -10.3 1.1 0 1.4 1.9 1.4 8 0 7.3 -0.2 8 -2 8 -1.8 0 -2 -0.7 -2 -5.7z"/>
  <path d="M422 1066 c0 -10.3 0.1 -11 2 -11 1.8 0 2 0.7 2 8.8 0 10 -0.7 13.2 -2.6 13.2 -1.1 0 -1.4 -2.3 -1.4 -11z"/>
  <path d="M86 1058.8 c0 -7.7 0.8 -10.8 2.6 -10.8 1.1 0 1.4 1.9 1.4 8.5 0 7.8 -0.2 8.5 -2 8.5 -1.8 0 -2 -0.7 -2 -6.2z"/>
  <path d="M539 1054.3 c0 -12 0.6 -15.3 2.6 -15.3 1.1 0 1.4 2.3 1.4 11 l0 11 7.5 0 c5.7 0 7.5 0.3 7.5 1.4 0 1.9 -3.2 2.6 -11.7 2.6 l-7.3 0 0 -10.7z"/>
  <path d="M1505 1052 c0 -10.4 0.3 -13 1.4 -13 2 0 2.6 3.3 2.6 15.3 0 10 -0.1 10.7 -2 10.7 -1.9 0 -2 -0.7 -2 -13z"/>
  <path d="M563 1062 c0 -1.8 0.7 -2 8.5 -2 6.6 0 8.5 0.3 8.5 1.4 0 1.8 -3.1 2.6 -10.7 2.6 -5.6 0 -6.3 -0.2 -6.3 -2z"/>
  <path d="M586 1061 c0 -1.8 0.7 -2 8.5 -2 6.6 0 8.5 0.3 8.5 1.4 0 1.8 -3.1 2.6 -10.7 2.6 -5.6 0 -6.3 -0.2 -6.3 -2z"/>
  <path d="M608 1060 c0 -1.8 0.7 -2 8.5 -2 6.6 0 8.5 0.3 8.5 1.4 0 1.8 -3.1 2.6 -10.7 2.6 -5.6 0 -6.3 -0.2 -6.3 -2z"/>
  <path d="M630 1059 c0 -1.8 0.7 -2 8.5 -2 6.6 0 8.5 0.3 8.5 1.4 0 1.8 -3.1 2.6 -10.7 2.6 -5.6 0 -6.3 -0.2 -6.3 -2z"/>
  <path d="M423 1034.5 c0 -10.8 0.1 -11.5 2 -11.5 1.9 0 2 0.7 2 9.3 0 10.5 -0.6 13.7 -2.6 13.7 -1.1 0 -1.4 -2.4 -1.4 -11.5z"/>
  <path d="M87 1038.8 c0 -7.7 0.8 -10.8 2.6 -10.8 1.1 0 1.4 1.9 1.4 8.5 0 7.8 -0.2 8.5 -2 8.5 -1.8 0 -2 -0.7 -2 -6.2z"/>
  <path d="M540 1015.3 c0 -12 0.6 -15.3 2.6 -15.3 1.1 0 1.4 2.6 1.4 13 0 12.3 -0.1 13 -2 13 -1.9 0 -2 -0.7 -2 -10.7z"/>
  <path d="M1504 1013 c0 -10.4 0.3 -13 1.4 -13 2 0 2.6 3.3 2.6 15.3 0 10 -0.1 10.7 -2 10.7 -1.9 0 -2 -0.7 -2 -13z"/>
  <path d="M88 1018.3 c0 -7.2 0.8 -10.3 2.6 -10.3 1.1 0 1.4 1.9 1.4 8 0 7.3 -0.2 8 -2 8 -1.8 0 -2 -0.7 -2 -5.7z"/>
  <path d="M424 1003 c0 -10.3 0.1 -11 2 -11 1.8 0 2 0.7 2 8.8 0 10 -0.7 13.2 -2.6 13.2 -1.1 0 -1.4 -2.3 -1.4 -11z"/>
  <path d="M89 998.3 c0 -7.2 0.8 -10.3 2.6 -10.3 1.1 0 1.4 1.9 1.4 8 0 7.3 -0.2 8 -2 8 -1.8 0 -2 -0.7 -2 -5.7z"/>
  <path d="M1165.6 990.8 c-0.3 -1.3 -0.6 -17.7 -0.6 -36.5 0 -33.6 0 -34.3 2 -34.3 2 0 2 0.7 2 36.5 0 30.4 -0.2 36.5 -1.4 36.5 -0.7 0 -1.6 -1 -2 -2.2z"/>
  <path d="M541 976.3 c0 -12 0.6 -15.3 2.6 -15.3 1.1 0 1.4 2.6 1.4 13 0 12.3 -0.1 13 -2 13 -1.9 0 -2 -0.7 -2 -10.7z"/>
  <path d="M1503 974 c0 -10.4 0.3 -13 1.4 -13 2 0 2.6 3.3 2.6 15.3 0 10 -0.1 10.7 -2 10.7 -1.9 0 -2 -0.7 -2 -13z"/>
  <path d="M90 977.8 c0 -7.7 0.8 -10.8 2.6 -10.8 1.1 0 1.4 1.9 1.4 8.5 0 7.8 -0.2 8.5 -2 8.5 -1.8 0 -2 -0.7 -2 -6.2z"/>
  <path d="M425 971 c0 -10.3 0.1 -11 2 -11 1.8 0 2 0.7 2 8.8 0 10 -0.7 13.2 -2.6 13.2 -1.1 0 -1.4 -2.3 -1.4 -11z"/>
  <path d="M91 957.8 c0 -7.7 0.8 -10.8 2.6 -10.8 1.1 0 1.4 1.9 1.4 8.5 0 7.8 -0.2 8.5 -2 8.5 -1.8 0 -2 -0.7 -2 -6.2z"/>
  <path d="M426 939 c0 -10.3 0.1 -11 2 -11 1.8 0 2 0.7 2 8.8 0 10 -0.7 13.2 -2.6 13.2 -1.1 0 -1.4 -2.3 -1.4 -11z"/>
  <path d="M542 937.3 c0 -12 0.6 -15.3 2.6 -15.3 1.1 0 1.4 2.6 1.4 13 0 12.3 -0.1 13 -2 13 -1.9 0 -2 -0.7 -2 -10.7z"/>
  <path d="M1502 935 c0 -10.4 0.3 -13 1.4 -13 2 0 2.6 3.3 2.6 15.3 0 10 -0.1 10.7 -2 10.7 -1.9 0 -2 -0.7 -2 -13z"/>
  <path d="M92 937.3 c0 -7.2 0.8 -10.3 2.6 -10.3 1.1 0 1.4 1.9 1.4 8 0 7.3 -0.2 8 -2 8 -1.8 0 -2 -0.7 -2 -5.7z"/>
  <path d="M93 917.3 c0 -7.2 0.8 -10.3 2.6 -10.3 1.1 0 1.4 1.9 1.4 8 0 7.3 -0.2 8 -2 8 -1.8 0 -2 -0.7 -2 -5.7z"/>
  <path d="M427 908 c0 -10.3 0.1 -11 2 -11 1.8 0 2 0.7 2 8.8 0 10 -0.7 13.2 -2.6 13.2 -1.1 0 -1.4 -2.3 -1.4 -11z"/>
  <path d="M543 898.3 c0 -12 0.6 -15.3 2.6 -15.3 1.1 0 1.4 2.6 1.4 13 0 12.3 -0.1 13 -2 13 -1.9 0 -2 -0.7 -2 -10.7z"/>
  <path d="M1501 895 c0 -10.4 0.3 -13 1.4 -13 2 0 2.6 3.3 2.6 15.3 0 10 -0.1 10.7 -2 10.7 -1.9 0 -2 -0.7 -2 -13z"/>
  <path d="M94 896.8 c0 -7.7 0.8 -10.8 2.6 -10.8 1.1 0 1.4 1.9 1.4 8.5 0 7.8 -0.2 8.5 -2 8.5 -1.8 0 -2 -0.7 -2 -6.2z"/>
  <path d="M428.2 879.3 l0.3 -7.8 6.3 -0.3 c4.8 -0.2 6.2 0 6.2 1.1 0 1.5 -2.9 2.7 -6.7 2.7 -2 0 -2.3 0.5 -2.3 3.8 0 5.2 -1 8.2 -2.7 8.2 -1.1 0 -1.3 -1.6 -1.1 -7.7z"/>
  <path d="M95 876.8 c0 -7.7 0.8 -10.8 2.6 -10.8 1.1 0 1.4 1.9 1.4 8.5 0 7.8 -0.2 8.5 -2 8.5 -1.8 0 -2 -0.7 -2 -6.2z"/>
  <path d="M446 872 c0 -1.8 0.7 -2 8.5 -2 6.6 0 8.5 0.3 8.5 1.4 0 1.8 -3.1 2.6 -10.7 2.6 -5.6 0 -6.3 -0.2 -6.3 -2z"/>
  <path d="M468 871 c0 -1.8 0.7 -2 8.5 -2 6.6 0 8.5 0.3 8.5 1.4 0 1.8 -3.1 2.6 -10.7 2.6 -5.6 0 -6.3 -0.2 -6.3 -2z"/>
  <path d="M544 871.5 c0 -1.2 -1.3 -1.5 -5.5 -1.5 -4.8 0 -5.5 -0.2 -5.5 -2 0 -1.8 0.7 -2 7 -2 l7 0 0 3.5 c0 2.4 -0.5 3.5 -1.5 3.5 -0.8 0 -1.5 -0.7 -1.5 -1.5z"/>
  <path d="M489 870 c0 -1.8 0.7 -2 8.5 -2 6.6 0 8.5 0.3 8.5 1.4 0 1.8 -3.1 2.6 -10.7 2.6 -5.6 0 -6.3 -0.2 -6.3 -2z"/>
  <path d="M511 869 c0 -1.8 0.7 -2 8.5 -2 6.6 0 8.5 0.3 8.5 1.4 0 1.8 -3.1 2.6 -10.7 2.6 -5.6 0 -6.3 -0.2 -6.3 -2z"/>
  <path d="M1500 856 c0 -10.4 0.3 -13 1.4 -13 2 0 2.6 3.3 2.6 15.3 0 10 -0.1 10.7 -2 10.7 -1.9 0 -2 -0.7 -2 -13z"/>
  <path d="M96 856.3 c0 -7.2 0.8 -10.3 2.6 -10.3 1.1 0 1.4 1.9 1.4 8 0 7.3 -0.2 8 -2 8 -1.8 0 -2 -0.7 -2 -5.7z"/>
  <path d="M1164.6 856.8 c-0.3 -1.3 -0.6 -17.5 -0.6 -36 0 -33.1 0 -33.8 2 -33.8 2 0 2 0.7 2 36 0 30 -0.2 36 -1.4 36 -0.7 0 -1.6 -1 -2 -2.2z"/>
  <path d="M97 836.3 c0 -7.2 0.8 -10.3 2.6 -10.3 1.1 0 1.4 1.9 1.4 8 0 7.3 -0.2 8 -2 8 -1.8 0 -2 -0.7 -2 -5.7z"/>
  <path d="M1499 817 c0 -10.4 0.3 -13 1.4 -13 2 0 2.6 3.3 2.6 15.3 0 10 -0.1 10.7 -2 10.7 -1.9 0 -2 -0.7 -2 -13z"/>
  <path d="M98 815.8 c0 -7.7 0.8 -10.8 2.6 -10.8 1.1 0 1.4 1.9 1.4 8.5 0 7.8 -0.2 8.5 -2 8.5 -1.8 0 -2 -0.7 -2 -6.2z"/>
  <path d="M99 795.8 c0 -7.7 0.8 -10.8 2.6 -10.8 1.1 0 1.4 1.9 1.4 8.5 0 7.8 -0.2 8.5 -2 8.5 -1.8 0 -2 -0.7 -2 -6.2z"/>
  <path d="M1498 778 c0 -10.4 0.3 -13 1.4 -13 2 0 2.6 3.3 2.6 15.3 0 10 -0.1 10.7 -2 10.7 -1.9 0 -2 -0.7 -2 -13z"/>
  <path d="M100 775.8 c0 -7.7 0.8 -10.8 2.6 -10.8 1.1 0 1.4 1.9 1.4 8.5 0 7.8 -0.2 8.5 -2 8.5 -1.8 0 -2 -0.7 -2 -6.2z"/>
  <path d="M543 771 c0 -4.3 0.3 -5 1.9 -5 1.5 0 2.1 0.8 2.3 3.3 0.3 3.2 0.4 3.2 5.1 2.9 4.2 -0.3 4.7 -0.1 4.7 1.7 0 1.9 -0.6 2.1 -7 2.1 l-7 0 0 -5z"/>
  <path d="M570 773.6 c0 -0.7 1 -1.6 2.3 -2 4.1 -1.1 5.7 -0.7 5.7 1.4 0 1.7 -0.7 2 -4 2 -2.7 0 -4 -0.4 -4 -1.4z"/>
  <path d="M592 772.6 c0 -1.3 2.8 -2.6 5.8 -2.6 0.6 0 1.2 0.9 1.2 2 0 1.6 -0.7 2 -3.5 2 -2.3 0 -3.5 -0.5 -3.5 -1.4z"/>
  <path d="M613 771.6 c0 -1.3 2.8 -2.6 5.8 -2.6 0.6 0 1.2 0.9 1.2 2 0 1.6 -0.7 2 -3.5 2 -2.3 0 -3.5 -0.5 -3.5 -1.4z"/>
  <path d="M634 770.6 c0 -0.7 1 -1.6 2.3 -2 4.1 -1.1 5.7 -0.7 5.7 1.4 0 1.7 -0.7 2 -4 2 -2.7 0 -4 -0.4 -4 -1.4z"/>
  <path d="M655 769.5 c0 -0.8 0.7 -1.5 1.6 -1.5 0.9 0 1.8 -0.9 2.1 -2 0.9 -3.5 3.3 -2.4 3.3 1.5 0 3.3 -0.2 3.5 -3.5 3.5 -2.4 0 -3.5 -0.5 -3.5 -1.5z"/>
  <path d="M101 755.3 c0 -7.2 0.8 -10.3 2.6 -10.3 1.1 0 1.4 1.9 1.4 8 0 7.3 -0.2 8 -2 8 -1.8 0 -2 -0.7 -2 -5.7z"/>
  <path d="M544 740 c0 -12.3 0.1 -13 2 -13 1.9 0 2 0.7 2 10.8 0 11.9 -0.6 15.2 -2.6 15.2 -1.1 0 -1.4 -2.6 -1.4 -13z"/>
  <path d="M659 739.8 c0 -14.5 0.5 -17.8 2.6 -17.8 1.1 0 1.4 3 1.4 15.5 0 14.8 -0.1 15.5 -2 15.5 -1.9 0 -2 -0.7 -2 -13.2z"/>
  <path d="M1497 739 c0 -10.4 0.3 -13 1.4 -13 2 0 2.6 3.3 2.6 15.3 0 10 -0.1 10.7 -2 10.7 -1.9 0 -2 -0.7 -2 -13z"/>
  <path d="M102 735.3 c0 -7.2 0.8 -10.3 2.6 -10.3 1.1 0 1.4 1.9 1.4 8 0 7.3 -0.2 8 -2 8 -1.8 0 -2 -0.7 -2 -5.7z"/>
  <path d="M1163.6 723.8 c-0.3 -1.3 -0.6 -17.7 -0.6 -36.5 0 -33.6 0 -34.3 2 -34.3 2 0 2 0.7 2 36.5 0 30.4 -0.2 36.5 -1.4 36.5 -0.7 0 -1.6 -1 -2 -2.2z"/>
  <path d="M103 715.3 c0 -7.2 0.8 -10.3 2.6 -10.3 1.1 0 1.4 1.9 1.4 8 0 7.3 -0.2 8 -2 8 -1.8 0 -2 -0.7 -2 -5.7z"/>
  <path d="M545 701 c0 -12.3 0.1 -13 2 -13 1.9 0 2 0.7 2 10.8 0 11.9 -0.6 15.2 -2.6 15.2 -1.1 0 -1.4 -2.6 -1.4 -13z"/>
  <path d="M1496 700 c0 -10.4 0.3 -13 1.4 -13 2 0 2.6 3.3 2.6 15.3 0 10 -0.1 10.7 -2 10.7 -1.9 0 -2 -0.7 -2 -13z"/>
  <path d="M660 688.8 c0 -14.5 0.5 -17.8 2.6 -17.8 1.1 0 1.4 3 1.4 15.5 0 14.8 -0.1 15.5 -2 15.5 -1.9 0 -2 -0.7 -2 -13.2z"/>
  <path d="M104 694.8 c0 -7.7 0.8 -10.8 2.6 -10.8 1.1 0 1.4 1.9 1.4 8.5 0 7.8 -0.2 8.5 -2 8.5 -1.8 0 -2 -0.7 -2 -6.2z"/>
  <path d="M105 674.3 c0 -7.2 0.8 -10.3 2.6 -10.3 1.1 0 1.4 1.9 1.4 8 0 7.3 -0.2 8 -2 8 -1.8 0 -2 -0.7 -2 -5.7z"/>
  <path d="M546 662 c0 -12.3 0.1 -13 2 -13 1.9 0 2 0.7 2 10.8 0 11.9 -0.6 15.2 -2.6 15.2 -1.1 0 -1.4 -2.6 -1.4 -13z"/>
  <path d="M1495 661 c0 -10.4 0.3 -13 1.4 -13 2 0 2.6 3.3 2.6 15.3 0 10 -0.1 10.7 -2 10.7 -1.9 0 -2 -0.7 -2 -13z"/>
  <path d="M106 654.3 c0 -7.2 0.8 -10.3 2.6 -10.3 1.1 0 1.4 1.9 1.4 8 0 7.3 -0.2 8 -2 8 -1.8 0 -2 -0.7 -2 -5.7z"/>
  <path d="M661 637.8 c0 -14.5 0.5 -17.8 2.6 -17.8 1.1 0 1.4 3 1.4 15.5 0 14.8 -0.1 15.5 -2 15.5 -1.9 0 -2 -0.7 -2 -13.2z"/>
  <path d="M107 634.3 c0 -7.2 0.8 -10.3 2.6 -10.3 1.1 0 1.4 1.9 1.4 8 0 7.3 -0.2 8 -2 8 -1.8 0 -2 -0.7 -2 -5.7z"/>
  <path d="M547 622.5 c0 -11.8 0.1 -12.5 2 -12.5 1.9 0 2 0.7 2 10.3 0 11.5 -0.6 14.7 -2.6 14.7 -1.1 0 -1.4 -2.5 -1.4 -12.5z"/>
  <path d="M1494 621.5 c0 -10 0.3 -12.5 1.4 -12.5 2 0 2.6 3.2 2.6 14.8 0 9.5 -0.1 10.2 -2 10.2 -1.9 0 -2 -0.7 -2 -12.5z"/>
  <path d="M108 613.8 c0 -7.7 0.8 -10.8 2.6 -10.8 1.1 0 1.4 1.9 1.4 8.5 0 7.8 -0.2 8.5 -2 8.5 -1.8 0 -2 -0.7 -2 -6.2z"/>
  <path d="M1925.8 604.3 c-1 -0.2 -1.8 -1.1 -1.8 -1.9 0 -1.1 1.7 -1.4 7.5 -1.4 6.8 0 7.5 0.2 7.5 2 0 1.8 -0.6 2 -5.7 1.9 -3.2 -0.1 -6.6 -0.3 -7.5 -0.6z"/>
  <path d="M1904.8 603.3 c-1 -0.2 -1.8 -1.1 -1.8 -1.9 0 -1.1 1.8 -1.4 8.5 -1.4 7.8 0 8.5 0.2 8.5 2 0 1.8 -0.6 2 -6.7 1.9 -3.8 -0.1 -7.6 -0.3 -8.5 -0.6z"/>
  <path d="M1884.8 602.3 c-1 -0.2 -1.8 -1.1 -1.8 -1.9 0 -1.1 1.7 -1.4 8 -1.4 7.3 0 8 0.2 8 2 0 1.8 -0.6 2 -6.2 1.9 -3.5 -0.1 -7.1 -0.3 -8 -0.6z"/>
  <path d="M1863.8 601.3 c-1 -0.2 -1.8 -1.1 -1.8 -1.9 0 -1.1 1.7 -1.4 8 -1.4 7.3 0 8 0.2 8 2 0 1.8 -0.6 2 -6.2 1.9 -3.5 -0.1 -7.1 -0.3 -8 -0.6z"/>
  <path d="M1842.8 600.3 c-1 -0.2 -1.8 -1.1 -1.8 -1.9 0 -1.1 1.8 -1.4 8.5 -1.4 7.8 0 8.5 0.2 8.5 2 0 1.8 -0.6 2 -6.7 1.9 -3.8 -0.1 -7.6 -0.3 -8.5 -0.6z"/>
  <path d="M662 586.3 c0 -15 0.5 -18.3 2.6 -18.3 1.1 0 1.4 3 1.4 16 0 15.3 -0.1 16 -2 16 -1.9 0 -2 -0.7 -2 -13.7z"/>
  <path d="M1822.8 599.3 c-1 -0.2 -1.8 -1.1 -1.8 -1.9 0 -1.1 1.7 -1.4 8 -1.4 7.3 0 8 0.2 8 2 0 1.8 -0.6 2 -6.2 1.9 -3.5 -0.1 -7.1 -0.3 -8 -0.6z"/>
  <path d="M109 593.3 c0 -7.2 0.8 -10.3 2.6 -10.3 1.1 0 1.4 1.9 1.4 8 0 7.3 -0.2 8 -2 8 -1.8 0 -2 -0.7 -2 -5.7z"/>
  <path d="M1801.8 598.3 c-1 -0.2 -1.8 -1.1 -1.8 -1.9 0 -1.1 1.7 -1.4 8 -1.4 7.3 0 8 0.2 8 2 0 1.8 -0.6 2 -6.2 1.9 -3.5 -0.1 -7.1 -0.3 -8 -0.6z"/>
  <path d="M1935 591 c0 -6.1 0.3 -8 1.4 -8 1.8 0 2.6 3.1 2.6 10.3 0 5 -0.2 5.7 -2 5.7 -1.8 0 -2 -0.7 -2 -8z"/>
  <path d="M1780.8 597.3 c-1 -0.2 -1.8 -1.1 -1.8 -1.9 0 -1.1 1.8 -1.4 8.5 -1.4 7.8 0 8.5 0.2 8.5 2 0 1.8 -0.6 2 -6.7 1.9 -3.8 -0.1 -7.6 -0.3 -8.5 -0.6z"/>
  <path d="M1760.8 596.3 c-1 -0.2 -1.8 -1.1 -1.8 -1.9 0 -1.1 1.7 -1.4 8 -1.4 7.3 0 8 0.2 8 2 0 1.8 -0.6 2 -6.2 1.9 -3.5 -0.1 -7.1 -0.3 -8 -0.6z"/>
  <path d="M548 591.5 l0 -4.5 -4 0 c-2.7 0 -4 -0.4 -4 -1.4 0 -1.6 3 -2.6 8.3 -2.6 3.7 0 3.7 0 3.7 4.3 0 5.6 -0.9 8.7 -2.6 8.7 -1 0 -1.4 -1.3 -1.4 -4.5z"/>
  <path d="M1739.8 595.3 c-1 -0.2 -1.8 -1.1 -1.8 -1.9 0 -1.1 1.7 -1.4 8 -1.4 7.3 0 8 0.2 8 2 0 1.8 -0.6 2 -6.2 1.9 -3.5 -0.1 -7.1 -0.3 -8 -0.6z"/>
  <path d="M1493.2 587.8 l0.3 -7.3 6.8 -0.3 c6.2 -0.3 6.7 -0.1 6.7 1.8 0 1.7 -0.6 2 -5 2 l-5 0 0 5.5 c0 4.9 -0.2 5.5 -2 5.5 -1.9 0 -2.1 -0.5 -1.8 -7.2z"/>
  <path d="M1718.8 594.3 c-1 -0.2 -1.8 -1.1 -1.8 -1.9 0 -1.1 1.8 -1.4 8.5 -1.4 7.8 0 8.5 0.2 8.5 2 0 1.8 -0.6 2 -6.7 1.9 -3.8 -0.1 -7.6 -0.3 -8.5 -0.6z"/>
  <path d="M1698.8 593.3 c-1 -0.2 -1.8 -1.1 -1.8 -1.9 0 -1.1 1.7 -1.4 8 -1.4 7.3 0 8 0.2 8 2 0 1.8 -0.6 2 -6.2 1.9 -3.5 -0.1 -7.1 -0.3 -8 -0.6z"/>
  <path d="M1162.6 590.8 c-0.3 -1.3 -0.6 -17.7 -0.6 -36.5 0 -33.6 0 -34.3 2 -34.3 2 0 2 0.7 2 36.5 0 30.4 -0.2 36.5 -1.4 36.5 -0.7 0 -1.6 -1 -2 -2.2z"/>
  <path d="M1677.8 592.3 c-1 -0.2 -1.8 -1.1 -1.8 -1.9 0 -1.1 1.7 -1.4 8 -1.4 7.3 0 8 0.2 8 2 0 1.8 -0.6 2 -6.2 1.9 -3.5 -0.1 -7.1 -0.3 -8 -0.6z"/>
  <path d="M437.7 591.3 c-0.4 -0.3 -0.7 -3 -0.7 -6 0 -4.6 0.3 -5.3 2 -5.3 1.7 0 2 0.7 2 4 0 3.3 0.3 4 2 4 1.3 0 2 0.7 2 2 0 1.6 -0.7 2 -3.3 2 -1.9 0 -3.7 -0.3 -4 -0.7z"/>
  <path d="M1656.8 591.3 c-1 -0.2 -1.8 -1.1 -1.8 -1.9 0 -1.1 1.8 -1.4 8.5 -1.4 7.8 0 8.5 0.2 8.5 2 0 1.8 -0.6 2 -6.7 1.9 -3.8 -0.1 -7.6 -0.3 -8.5 -0.6z"/>
  <path d="M458 589.6 c0 -0.7 1 -1.6 2.3 -2 4.1 -1.1 5.7 -0.7 5.7 1.4 0 1.7 -0.7 2 -4 2 -2.7 0 -4 -0.4 -4 -1.4z"/>
  <path d="M1636.8 590.3 c-1 -0.2 -1.8 -1.1 -1.8 -1.9 0 -1.1 1.7 -1.4 8 -1.4 7.3 0 8 0.2 8 2 0 1.8 -0.6 2 -6.2 1.9 -3.5 -0.1 -7.1 -0.3 -8 -0.6z"/>
  <path d="M478 588.6 c0 -0.7 1 -1.6 2.3 -2 4.1 -1.1 5.7 -0.7 5.7 1.4 0 1.7 -0.7 2 -4 2 -2.7 0 -4 -0.4 -4 -1.4z"/>
  <path d="M1615.8 589.3 c-1 -0.2 -1.8 -1.1 -1.8 -1.9 0 -1.1 1.8 -1.4 8.5 -1.4 7.8 0 8.5 0.2 8.5 2 0 1.8 -0.6 2 -6.7 1.9 -3.8 -0.1 -7.6 -0.3 -8.5 -0.6z"/>
  <path d="M499 587.6 c0 -0.7 1 -1.6 2.3 -2 4.1 -1.1 5.7 -0.7 5.7 1.4 0 1.7 -0.7 2 -4 2 -2.7 0 -4 -0.4 -4 -1.4z"/>
  <path d="M1595.8 588.3 c-1 -0.2 -1.8 -1.1 -1.8 -1.9 0 -1.1 1.7 -1.4 8 -1.4 7.3 0 8 0.2 8 2 0 1.8 -0.6 2 -6.2 1.9 -3.5 -0.1 -7.1 -0.3 -8 -0.6z"/>
  <path d="M520 586.6 c0 -0.7 1 -1.6 2.3 -2 4.1 -1.1 5.7 -0.7 5.7 1.4 0 1.7 -0.7 2 -4 2 -2.7 0 -4 -0.4 -4 -1.4z"/>
  <path d="M1574.8 587.3 c-1 -0.2 -1.8 -1.1 -1.8 -1.9 0 -1.1 1.7 -1.4 8 -1.4 7.3 0 8 0.2 8 2 0 1.8 -0.6 2 -6.2 1.9 -3.5 -0.1 -7.1 -0.3 -8 -0.6z"/>
  <path d="M1553.8 586.3 c-1 -0.2 -1.8 -1.1 -1.8 -1.9 0 -1.1 1.8 -1.4 8.5 -1.4 7.8 0 8.5 0.2 8.5 2 0 1.8 -0.6 2 -6.7 1.9 -3.8 -0.1 -7.6 -0.3 -8.5 -0.6z"/>
  <path d="M1533.8 585.3 c-1 -0.2 -1.8 -1.1 -1.8 -1.9 0 -1.1 1.7 -1.4 8 -1.4 7.3 0 8 0.2 8 2 0 1.8 -0.6 2 -6.2 1.9 -3.5 -0.1 -7.1 -0.3 -8 -0.6z"/>
  <path d="M1512.8 584.3 c-1 -0.2 -1.8 -1.1 -1.8 -1.9 0 -1.1 1.7 -1.4 8 -1.4 7.3 0 8 0.2 8 2 0 1.8 -0.6 2 -6.2 1.9 -3.5 -0.1 -7.1 -0.3 -8 -0.6z"/>
  <path d="M110 573.3 c0 -7.2 0.8 -10.3 2.6 -10.3 1.1 0 1.4 1.9 1.4 8 0 7.3 -0.2 8 -2 8 -1.8 0 -2 -0.7 -2 -5.7z"/>
  <path d="M1934 571 c0 -6.1 0.3 -8 1.4 -8 1.8 0 2.6 3.1 2.6 10.3 0 5 -0.2 5.7 -2 5.7 -1.8 0 -2 -0.7 -2 -8z"/>
  <path d="M438 559 c0 -10.3 0.1 -11 2 -11 1.8 0 2 0.7 2 8.8 0 10 -0.7 13.2 -2.6 13.2 -1.1 0 -1.4 -2.3 -1.4 -11z"/>
  <path d="M111 553.3 c0 -7.2 0.8 -10.3 2.6 -10.3 1.1 0 1.4 1.9 1.4 8 0 7.3 -0.2 8 -2 8 -1.8 0 -2 -0.7 -2 -5.7z"/>
  <path d="M1933 551 c0 -6.1 0.3 -8 1.4 -8 1.8 0 2.6 3.1 2.6 10.3 0 5 -0.2 5.7 -2 5.7 -1.8 0 -2 -0.7 -2 -8z"/>
  <path d="M663 535.3 c0 -15 0.5 -18.3 2.6 -18.3 1.1 0 1.4 3 1.4 16 0 15.3 -0.1 16 -2 16 -1.9 0 -2 -0.7 -2 -13.7z"/>
  <path d="M112 533.3 c0 -7.2 0.8 -10.3 2.6 -10.3 1.1 0 1.4 1.9 1.4 8 0 7.3 -0.2 8 -2 8 -1.8 0 -2 -0.7 -2 -5.7z"/>
  <path d="M439 527 c0 -10.3 0.1 -11 2 -11 1.8 0 2 0.7 2 8.8 0 10 -0.7 13.2 -2.6 13.2 -1.1 0 -1.4 -2.3 -1.4 -11z"/>
  <path d="M1932 530 c0 -6.1 0.3 -8 1.4 -8 1.8 0 2.6 3.1 2.6 10.3 0 5 -0.2 5.7 -2 5.7 -1.8 0 -2 -0.7 -2 -8z"/>
  <path d="M113 512.3 c0 -7.2 0.8 -10.3 2.6 -10.3 1.1 0 1.4 1.9 1.4 8 0 7.3 -0.2 8 -2 8 -1.8 0 -2 -0.7 -2 -5.7z"/>
  <path d="M1931 510 c0 -6.1 0.3 -8 1.4 -8 1.8 0 2.6 3.1 2.6 10.3 0 5 -0.2 5.7 -2 5.7 -1.8 0 -2 -0.7 -2 -8z"/>
  <path d="M440 495 c0 -10.3 0.1 -11 2 -11 1.8 0 2 0.7 2 8.8 0 10 -0.7 13.2 -2.6 13.2 -1.1 0 -1.4 -2.3 -1.4 -11z"/>
  <path d="M114 492.3 c0 -7.2 0.8 -10.3 2.6 -10.3 1.1 0 1.4 1.9 1.4 8 0 7.3 -0.2 8 -2 8 -1.8 0 -2 -0.7 -2 -5.7z"/>
  <path d="M664 484.3 c0 -15 0.5 -18.3 2.6 -18.3 1.1 0 1.4 3 1.4 16 0 15.3 -0.1 16 -2 16 -1.9 0 -2 -0.7 -2 -13.7z"/>
  <path d="M1930 490 c0 -6.1 0.3 -8 1.4 -8 1.8 0 2.6 3.1 2.6 10.3 0 5 -0.2 5.7 -2 5.7 -1.8 0 -2 -0.7 -2 -8z"/>
  <path d="M115 472.3 c0 -7.2 0.8 -10.3 2.6 -10.3 1.1 0 1.4 1.9 1.4 8 0 7.3 -0.2 8 -2 8 -1.8 0 -2 -0.7 -2 -5.7z"/>
  <path d="M1929 470 c0 -6.1 0.3 -8 1.4 -8 1.8 0 2.6 3.1 2.6 10.3 0 5 -0.2 5.7 -2 5.7 -1.8 0 -2 -0.7 -2 -8z"/>
  <path d="M441 464 c0 -10.3 0.1 -11 2 -11 1.8 0 2 0.7 2 8.8 0 10 -0.7 13.2 -2.6 13.2 -1.1 0 -1.4 -2.3 -1.4 -11z"/>
  <path d="M994 421 c0 -41.3 0 -42 -2 -42 -2.7 0 -2.5 -2.6 0.3 -3.4 6.1 -1.6 5.7 -4.7 5.7 41.2 0 22.9 -0.3 42.7 -0.6 44 -0.4 1.2 -1.3 2.2 -2 2.2 -1.2 0 -1.4 -6.9 -1.4 -42z"/>
  <path d="M1161.6 456.8 c-0.3 -1.3 -0.6 -17.5 -0.6 -36 0 -33.1 0 -33.8 2 -33.8 2 0 2 0.7 2 36 0 30 -0.2 36 -1.4 36 -0.7 0 -1.6 -1 -2 -2.2z"/>
  <path d="M116 452.3 c0 -7.2 0.8 -10.3 2.6 -10.3 1.1 0 1.4 1.9 1.4 8 0 7.3 -0.2 8 -2 8 -1.8 0 -2 -0.7 -2 -5.7z"/>
  <path d="M1928 449 c0 -6.1 0.3 -8 1.4 -8 1.8 0 2.6 3.1 2.6 10.3 0 5 -0.2 5.7 -2 5.7 -1.8 0 -2 -0.7 -2 -8z"/>
  <path d="M665 432.8 c0 -14.5 0.5 -17.8 2.6 -17.8 1.1 0 1.4 3 1.4 15.5 0 14.8 -0.1 15.5 -2 15.5 -1.9 0 -2 -0.7 -2 -13.2z"/>
  <path d="M442 432 c0 -10.3 0.1 -11 2 -11 1.8 0 2 0.7 2 8.8 0 10 -0.7 13.2 -2.6 13.2 -1.1 0 -1.4 -2.3 -1.4 -11z"/>
  <path d="M117 431.8 c0 -2.9 0.3 -7 0.6 -9 0.6 -3.2 1.1 -3.8 3 -3.8 1.7 0 2.4 0.6 2.4 2 0 1.1 -0.4 2 -1 2 -0.6 0 -1 3 -1 7 0 6.3 -0.2 7 -2 7 -1.7 0 -2 -0.7 -2 -5.2z"/>
  <path d="M1927 430 c0 -4 -0.4 -7 -1 -7 -0.5 0 -1 -0.9 -1 -2 0 -1.4 0.7 -2 2.4 -2 1.9 0 2.4 0.6 3 3.8 0.3 2 0.6 6.1 0.6 9 0 4.5 -0.3 5.2 -2 5.2 -1.8 0 -2 -0.7 -2 -7z"/>
  <path d="M127 420.6 c0 -1.8 3.1 -2.6 10.3 -2.6 5 0 5.7 0.2 5.7 2 0 1.8 -0.7 2 -8 2 -6.1 0 -8 -0.3 -8 -1.4z"/>
  <path d="M1905 420 c0 -1.8 0.7 -2 5.8 -2 7.1 0 10.2 0.8 10.2 2.6 0 1.1 -1.9 1.4 -8 1.4 -7.3 0 -8 -0.2 -8 -2z"/>
  <path d="M147 419.6 c0 -1.8 3.1 -2.6 10.3 -2.6 5 0 5.7 0.2 5.7 2 0 1.8 -0.7 2 -8 2 -6.1 0 -8 -0.3 -8 -1.4z"/>
  <path d="M1885 419 c0 -1.8 0.7 -2 5.8 -2 7.1 0 10.2 0.8 10.2 2.6 0 1.1 -1.9 1.4 -8 1.4 -7.3 0 -8 -0.2 -8 -2z"/>
  <path d="M167 418.6 c0 -1.8 3.1 -2.6 10.3 -2.6 5 0 5.7 0.2 5.7 2 0 1.8 -0.7 2 -8 2 -6.1 0 -8 -0.3 -8 -1.4z"/>
  <path d="M1865 418 c0 -1.8 0.7 -2 5.8 -2 7.1 0 10.2 0.8 10.2 2.6 0 1.1 -1.9 1.4 -8 1.4 -7.3 0 -8 -0.2 -8 -2z"/>
  <path d="M187 417.6 c0 -1.8 3.1 -2.6 10.3 -2.6 5 0 5.7 0.2 5.7 2 0 1.8 -0.7 2 -8 2 -6.1 0 -8 -0.3 -8 -1.4z"/>
  <path d="M1845 417 c0 -1.8 0.7 -2 5.8 -2 7.1 0 10.2 0.8 10.2 2.6 0 1.1 -1.9 1.4 -8 1.4 -7.3 0 -8 -0.2 -8 -2z"/>
  <path d="M207 416.6 c0 -1.8 3.1 -2.6 10.3 -2.6 5 0 5.7 0.2 5.7 2 0 1.8 -0.7 2 -8 2 -6.1 0 -8 -0.3 -8 -1.4z"/>
  <path d="M1825 416 c0 -1.8 0.7 -2 5.8 -2 7.1 0 10.2 0.8 10.2 2.6 0 1.1 -1.9 1.4 -8 1.4 -7.3 0 -8 -0.2 -8 -2z"/>
  <path d="M228 415.6 c0 -1.8 3.1 -2.6 10.3 -2.6 5 0 5.7 0.2 5.7 2 0 1.8 -0.7 2 -8 2 -6.1 0 -8 -0.3 -8 -1.4z"/>
  <path d="M1804 415 c0 -1.8 0.7 -2 5.8 -2 7.1 0 10.2 0.8 10.2 2.6 0 1.1 -1.9 1.4 -8 1.4 -7.3 0 -8 -0.2 -8 -2z"/>
  <path d="M248 414.6 c0 -1.8 3.1 -2.6 10.3 -2.6 5 0 5.7 0.2 5.7 2 0 1.8 -0.7 2 -8 2 -6.1 0 -8 -0.3 -8 -1.4z"/>
  <path d="M1784 414 c0 -1.8 0.7 -2 5.8 -2 7.1 0 10.2 0.8 10.2 2.6 0 1.1 -1.9 1.4 -8 1.4 -7.3 0 -8 -0.2 -8 -2z"/>
  <path d="M268 413.6 c0 -1.8 3.1 -2.6 10.3 -2.6 5 0 5.7 0.2 5.7 2 0 1.8 -0.7 2 -8 2 -6.1 0 -8 -0.3 -8 -1.4z"/>
  <path d="M1764 413 c0 -1.8 0.7 -2 5.8 -2 7.1 0 10.2 0.8 10.2 2.6 0 1.1 -1.9 1.4 -8 1.4 -7.3 0 -8 -0.2 -8 -2z"/>
  <path d="M288 412.6 c0 -1.8 3.1 -2.6 10.3 -2.6 5 0 5.7 0.2 5.7 2 0 1.8 -0.7 2 -8 2 -6.1 0 -8 -0.3 -8 -1.4z"/>
  <path d="M1744 412 c0 -1.8 0.7 -2 5.8 -2 7.1 0 10.2 0.8 10.2 2.6 0 1.1 -1.9 1.4 -8 1.4 -7.3 0 -8 -0.2 -8 -2z"/>
  <path d="M308 411.6 c0 -1.8 3.1 -2.6 10.3 -2.6 5 0 5.7 0.2 5.7 2 0 1.8 -0.7 2 -8 2 -6.1 0 -8 -0.3 -8 -1.4z"/>
  <path d="M1724 411 c0 -1.8 0.7 -2 5.8 -2 7.1 0 10.2 0.8 10.2 2.6 0 1.1 -1.9 1.4 -8 1.4 -7.3 0 -8 -0.2 -8 -2z"/>
  <path d="M328 410.6 c0 -1.8 3.1 -2.6 10.3 -2.6 5 0 5.7 0.2 5.7 2 0 1.8 -0.7 2 -8 2 -6.1 0 -8 -0.3 -8 -1.4z"/>
  <path d="M1704 410 c0 -1.8 0.7 -2 5.8 -2 7.1 0 10.2 0.8 10.2 2.6 0 1.1 -1.9 1.4 -8 1.4 -7.3 0 -8 -0.2 -8 -2z"/>
  <path d="M348 409.6 c0 -1.8 3.1 -2.6 10.3 -2.6 5 0 5.7 0.2 5.7 2 0 1.8 -0.7 2 -8 2 -6.1 0 -8 -0.3 -8 -1.4z"/>
  <path d="M443 409 c0 -1.8 -0.7 -2 -7.5 -2 -5.7 0 -7.5 -0.3 -7.5 -1.4 0 -1.9 3.2 -2.6 11.8 -2.6 7.7 0 8 0.3 6.6 5.8 -0.8 2.7 -3.4 2.9 -3.4 0.2z"/>
  <path d="M1684 409 c0 -1.8 0.7 -2 5.8 -2 7.1 0 10.2 0.8 10.2 2.6 0 1.1 -1.9 1.4 -8 1.4 -7.3 0 -8 -0.2 -8 -2z"/>
  <path d="M368 408.6 c0 -1.8 3.1 -2.6 10.3 -2.6 5 0 5.7 0.2 5.7 2 0 1.8 -0.7 2 -8 2 -6.1 0 -8 -0.3 -8 -1.4z"/>
  <path d="M1664 408 c0 -1.8 0.7 -2 5.8 -2 7.1 0 10.2 0.8 10.2 2.6 0 1.1 -1.9 1.4 -8 1.4 -7.3 0 -8 -0.2 -8 -2z"/>
  <path d="M388 407.6 c0 -1.8 3.1 -2.6 10.3 -2.6 5 0 5.7 0.2 5.7 2 0 1.8 -0.7 2 -8 2 -6.1 0 -8 -0.3 -8 -1.4z"/>
  <path d="M1644 407 c0 -1.8 0.7 -2 5.8 -2 7.1 0 10.2 0.8 10.2 2.6 0 1.1 -1.9 1.4 -8 1.4 -7.3 0 -8 -0.2 -8 -2z"/>
  <path d="M408 406.6 c0 -1.8 3.1 -2.6 10.3 -2.6 5 0 5.7 0.2 5.7 2 0 1.8 -0.7 2 -8 2 -6.1 0 -8 -0.3 -8 -1.4z"/>
  <path d="M1624 406 c0 -1.8 0.7 -2 5.8 -2 7.1 0 10.2 0.8 10.2 2.6 0 1.1 -1.9 1.4 -8 1.4 -7.3 0 -8 -0.2 -8 -2z"/>
  <path d="M1604 405 c0 -1.8 0.7 -2 5.8 -2 7.1 0 10.2 0.8 10.2 2.6 0 1.1 -1.9 1.4 -8 1.4 -7.3 0 -8 -0.2 -8 -2z"/>
  <path d="M1584 404 c0 -1.8 0.7 -2 5.8 -2 7.1 0 10.2 0.8 10.2 2.6 0 1.1 -1.9 1.4 -8 1.4 -7.3 0 -8 -0.2 -8 -2z"/>
  <path d="M1564 403 c0 -1.8 0.7 -2 5.8 -2 7.1 0 10.2 0.8 10.2 2.6 0 1.1 -1.9 1.4 -8 1.4 -7.3 0 -8 -0.2 -8 -2z"/>
  <path d="M1543 402 c0 -1.8 0.7 -2 6.3 -2 7.6 0 10.7 0.8 10.7 2.6 0 1.1 -1.9 1.4 -8.5 1.4 -7.8 0 -8.5 -0.2 -8.5 -2z"/>
  <path d="M1523 401 c0 -1.8 0.7 -2 5.8 -2 7.1 0 10.2 0.8 10.2 2.6 0 1.1 -1.9 1.4 -8 1.4 -7.3 0 -8 -0.2 -8 -2z"/>
  <path d="M1503 400 c0 -1.8 0.7 -2 5.8 -2 7.1 0 10.2 0.8 10.2 2.6 0 1.1 -1.9 1.4 -8 1.4 -7.3 0 -8 -0.2 -8 -2z"/>
  <path d="M1483 399 c0 -1.8 0.7 -2 5.8 -2 7.1 0 10.2 0.8 10.2 2.6 0 1.1 -1.9 1.4 -8 1.4 -7.3 0 -8 -0.2 -8 -2z"/>
  <path d="M1463 398 c0 -1.8 0.7 -2 5.8 -2 7.1 0 10.2 0.8 10.2 2.6 0 1.1 -1.9 1.4 -8 1.4 -7.3 0 -8 -0.2 -8 -2z"/>
  <path d="M1443 397 c0 -1.8 0.7 -2 5.8 -2 7.1 0 10.2 0.8 10.2 2.6 0 1.1 -1.9 1.4 -8 1.4 -7.3 0 -8 -0.2 -8 -2z"/>
  <path d="M1423 396 c0 -1.8 0.7 -2 5.8 -2 7.1 0 10.2 0.8 10.2 2.6 0 1.1 -1.9 1.4 -8 1.4 -7.3 0 -8 -0.2 -8 -2z"/>
  <path d="M1403 395 c0 -1.8 0.7 -2 5.8 -2 7.1 0 10.2 0.8 10.2 2.6 0 1.1 -1.9 1.4 -8 1.4 -7.3 0 -8 -0.2 -8 -2z"/>
  <path d="M1383 394 c0 -1.8 0.7 -2 5.8 -2 7.1 0 10.2 0.8 10.2 2.6 0 1.1 -1.9 1.4 -8 1.4 -7.3 0 -8 -0.2 -8 -2z"/>
  <path d="M669 393.6 c0 -1.8 3.1 -2.6 10.3 -2.6 5 0 5.7 0.2 5.7 2 0 1.8 -0.7 2 -8 2 -6.1 0 -8 -0.3 -8 -1.4z"/>
  <path d="M1363 393 c0 -1.8 0.7 -2 5.8 -2 7.1 0 10.2 0.8 10.2 2.6 0 1.1 -1.9 1.4 -8 1.4 -7.3 0 -8 -0.2 -8 -2z"/>
  <path d="M689 392.6 c0 -1.8 3.1 -2.6 10.3 -2.6 5 0 5.7 0.2 5.7 2 0 1.8 -0.7 2 -8 2 -6.1 0 -8 -0.3 -8 -1.4z"/>
  <path d="M1343 392 c0 -1.8 0.7 -2 5.8 -2 7.1 0 10.2 0.8 10.2 2.6 0 1.1 -1.9 1.4 -8 1.4 -7.3 0 -8 -0.2 -8 -2z"/>
  <path d="M709 391.6 c0 -1.8 3.1 -2.6 10.3 -2.6 5 0 5.7 0.2 5.7 2 0 1.8 -0.7 2 -8 2 -6.1 0 -8 -0.3 -8 -1.4z"/>
  <path d="M1323 391 c0 -1.8 0.7 -2 5.8 -2 7.1 0 10.2 0.8 10.2 2.6 0 1.1 -1.9 1.4 -8 1.4 -7.3 0 -8 -0.2 -8 -2z"/>
  <path d="M729 390.6 c0 -1.8 3.1 -2.6 10.3 -2.6 5 0 5.7 0.2 5.7 2 0 1.8 -0.7 2 -8 2 -6.1 0 -8 -0.3 -8 -1.4z"/>
  <path d="M1303 390 c0 -1.8 0.7 -2 5.8 -2 7.1 0 10.2 0.8 10.2 2.6 0 1.1 -1.9 1.4 -8 1.4 -7.3 0 -8 -0.2 -8 -2z"/>
  <path d="M749 389.6 c0 -1.8 3.1 -2.6 10.3 -2.6 5 0 5.7 0.2 5.7 2 0 1.8 -0.7 2 -8 2 -6.1 0 -8 -0.3 -8 -1.4z"/>
  <path d="M1283 389 c0 -1.8 0.7 -2 5.8 -2 7.1 0 10.2 0.8 10.2 2.6 0 1.1 -1.9 1.4 -8 1.4 -7.3 0 -8 -0.2 -8 -2z"/>
  <path d="M770 388.6 c0 -1.8 3.1 -2.6 10.3 -2.6 5 0 5.7 0.2 5.7 2 0 1.8 -0.7 2 -8 2 -6.1 0 -8 -0.3 -8 -1.4z"/>
  <path d="M1262 388 c0 -1.8 0.7 -2 5.8 -2 7.1 0 10.2 0.8 10.2 2.6 0 1.1 -1.9 1.4 -8 1.4 -7.3 0 -8 -0.2 -8 -2z"/>
  <path d="M790 387.6 c0 -1.8 3.1 -2.6 10.3 -2.6 5 0 5.7 0.2 5.7 2 0 1.8 -0.7 2 -8 2 -6.1 0 -8 -0.3 -8 -1.4z"/>
  <path d="M1242 387 c0 -1.8 0.7 -2 5.8 -2 7.1 0 10.2 0.8 10.2 2.6 0 1.1 -1.9 1.4 -8 1.4 -7.3 0 -8 -0.2 -8 -2z"/>
  <path d="M810 386.6 c0 -1.8 3.1 -2.6 10.3 -2.6 5 0 5.7 0.2 5.7 2 0 1.8 -0.7 2 -8 2 -6.1 0 -8 -0.3 -8 -1.4z"/>
  <path d="M1222 386 c0 -1.8 0.7 -2 5.8 -2 7.1 0 10.2 0.8 10.2 2.6 0 1.1 -1.9 1.4 -8 1.4 -7.3 0 -8 -0.2 -8 -2z"/>
  <path d="M830 385.6 c0 -1.8 3.1 -2.6 10.3 -2.6 5 0 5.7 0.2 5.7 2 0 1.8 -0.7 2 -8 2 -6.1 0 -8 -0.3 -8 -1.4z"/>
  <path d="M1202 385 c0 -1.8 0.7 -2 5.8 -2 7.1 0 10.2 0.8 10.2 2.6 0 1.1 -1.9 1.4 -8 1.4 -7.3 0 -8 -0.2 -8 -2z"/>
  <path d="M850 384.6 c0 -1.8 3.1 -2.6 10.3 -2.6 5 0 5.7 0.2 5.7 2 0 1.8 -0.7 2 -8 2 -6.1 0 -8 -0.3 -8 -1.4z"/>
  <path d="M1182 384 c0 -1.8 0.7 -2 5.8 -2 7.1 0 10.2 0.8 10.2 2.6 0 1.1 -1.9 1.4 -8 1.4 -7.3 0 -8 -0.2 -8 -2z"/>
  <path d="M870 383.6 c0 -1.8 3.1 -2.6 10.3 -2.6 5 0 5.7 0.2 5.7 2 0 1.8 -0.7 2 -8 2 -6.1 0 -8 -0.3 -8 -1.4z"/>
  <path d="M1162 383 c0 -1.8 0.7 -2 5.8 -2 7.1 0 10.2 0.8 10.2 2.6 0 1.1 -1.9 1.4 -8 1.4 -7.3 0 -8 -0.2 -8 -2z"/>
  <path d="M890 382.6 c0 -1.8 3.1 -2.6 10.3 -2.6 5 0 5.7 0.2 5.7 2 0 1.8 -0.7 2 -8 2 -6.1 0 -8 -0.3 -8 -1.4z"/>
  <path d="M910 381.6 c0 -1.8 3.1 -2.6 10.3 -2.6 5 0 5.7 0.2 5.7 2 0 1.8 -0.7 2 -8 2 -6.1 0 -8 -0.3 -8 -1.4z"/>
  <path d="M930 380.6 c0 -1.8 3.1 -2.6 10.3 -2.6 5 0 5.7 0.2 5.7 2 0 1.8 -0.7 2 -8 2 -6.1 0 -8 -0.3 -8 -1.4z"/>
  <path d="M950 379.6 c0 -1.8 3.1 -2.6 10.3 -2.6 5 0 5.7 0.2 5.7 2 0 1.8 -0.7 2 -8 2 -6.1 0 -8 -0.3 -8 -1.4z"/>
  <path d="M970 378.6 c0 -1.8 3.1 -2.6 10.3 -2.6 5 0 5.7 0.2 5.7 2 0 1.8 -0.7 2 -8 2 -6.1 0 -8 -0.3 -8 -1.4z"/>
 </g>
 <g fill="#fcfcfc">
  <path d="M71 1379.8 c0 -2.9 2.7 -59.3 6 -125.3 3.2 -66 13.8 -280.6 23.5 -477 9.7 -196.3 17.9 -357.2 18.2 -357.5 0.5 -0.5 326.6 -16.9 327.1 -16.5 0.2 0.2 -1 41.6 -2.6 92.2 -1.6 50.5 -2.7 92.1 -2.3 92.4 0.3 0.3 24.9 -0.7 54.6 -2.2 29.7 -1.4 54.4 -2.3 54.9 -1.9 0.4 0.5 -0.3 42.5 -1.6 94.7 -1.4 51.6 -2.4 93.9 -2.4 94 0.1 0.1 25.4 -1 56.2 -2.5 l56.1 -2.6 0.6 -15.1 c0.4 -8.2 2.1 -92.7 3.9 -187.8 l3.3 -172.7 3 0 c1.6 0 75.1 -3.6 163.3 -8 88.1 -4.4 161.2 -8 162.3 -8 l2.1 0 -0.7 484.8 c-0.4 266.6 -0.9 484.8 -1 485 -0.5 0.6 -346.9 15.2 -347.4 14.6 -0.2 -0.2 0.8 -67.7 2.4 -149.9 1.6 -82.2 2.6 -149.8 2.2 -150.1 -0.4 -0.4 -26 0.4 -56.9 1.8 -31 1.4 -56.3 2.5 -56.3 2.4 -0.1 0 1 -43.9 2.4 -97.3 1.3 -53.5 2.2 -97.5 2 -97.7 -0.7 -0.7 -111.3 4.5 -112 5.3 -0.4 0.3 -4.2 112 -8.4 248.1 -4.3 136.1 -7.8 247.6 -7.9 247.7 -0.2 0.2 -332.7 14.3 -338.8 14.3 l-5.8 0 0 -5.2z"/>
  <path d="M1562.2 1368 c-215.8 -9.3 -392.6 -17.1 -393 -17.4 -0.4 -0.4 -8.2 -968.5 -7.8 -969.2 0.2 -0.4 767.6 38.2 767.9 38.6 0.5 0.5 9.8 184.3 9.4 184.5 -0.1 0.1 -99.4 -4.7 -220.7 -10.6 -121.3 -5.9 -220.8 -10.4 -221.1 -10.1 -0.6 0.7 13.9 579.3 14.5 580 0.2 0.1 102.9 4.8 228.2 10.3 125.4 5.6 227.9 10.2 228 10.2 0.2 0.4 9.5 193.5 9.4 197 l0 3.7 -11.2 -0.1 c-6.2 -0.1 -187.9 -7.7 -403.6 -16.9z"/>
 </g>
</svg>